<?xml version="1.0" encoding="utf-8"?>
<!-- Generator: Adobe Illustrator 24.1.2, SVG Export Plug-In . SVG Version: 6.00 Build 0)  -->
<svg version="1.1" id="Layer_1" xmlns="http://www.w3.org/2000/svg" xmlns:xlink="http://www.w3.org/1999/xlink" x="0px" y="0px"
	 width="225px" height="200px" viewBox="0 0 225 200" style="enable-background:new 0 0 225 200;" xml:space="preserve">
<style type="text/css">
	.st0{opacity:0.15;clip-path:url(#SVGID_2_);}
	.st1{fill:#6A47AF;}
</style>
<g>
	<defs>
		<rect id="SVGID_1_" width="225" height="200"/>
	</defs>
	<clipPath id="SVGID_2_">
		<use xlink:href="#SVGID_1_"  style="overflow:visible;"/>
	</clipPath>
	<g class="st0">
		<path class="st1" d="M69.4,60.6c-0.6-1.1-0.9-2.3-0.8-3.6c0.1-1.3,0.5-2.5,1.3-3.6c1-1.5,2.2-2.5,3.6-3c1.4-0.5,2.9-0.5,4.5,0.1
			l-2.2,3.3c-0.6-0.2-1.3-0.2-1.8,0.1c-0.6,0.2-1.1,0.6-1.5,1.3c-0.6,0.9-0.7,1.8-0.4,2.7c0.3,0.9,1,1.8,2.2,2.6
			c1.2,0.8,2.2,1.1,3.2,1c1-0.1,1.8-0.6,2.3-1.5c0.8-1.2,0.8-2.4-0.1-3.5l2.2-3.3c1.1,1.2,1.7,2.6,1.8,4.1c0.1,1.5-0.3,3-1.3,4.5
			c-0.8,1.2-1.7,2-2.8,2.6c-1.1,0.6-2.3,0.8-3.6,0.7c-1.3-0.1-2.6-0.6-3.8-1.4C70.9,62.8,70,61.8,69.4,60.6z"/>
		<path class="st1" d="M88.7,51.8c-1.2,0.4-2.5,0.5-3.7,0.2c-1.3-0.3-2.5-0.9-3.6-2c-1.1-1-1.9-2.1-2.3-3.4
			c-0.4-1.3-0.4-2.5-0.1-3.8c0.3-1.3,0.9-2.4,1.9-3.5c0.9-1,2-1.8,3.3-2.2c1.2-0.4,2.5-0.5,3.8-0.2c1.3,0.3,2.5,0.9,3.6,1.9
			c1.1,1,1.8,2.1,2.2,3.4c0.4,1.3,0.4,2.5,0.1,3.8c-0.3,1.3-1,2.4-1.9,3.5C91,50.6,89.9,51.4,88.7,51.8z M90.5,45.7
			c0.2-0.7,0.1-1.3-0.1-2c-0.2-0.7-0.7-1.4-1.4-2c-1-0.9-2.1-1.4-3.1-1.3c-1,0-1.9,0.4-2.6,1.2c-0.7,0.8-1,1.7-1,2.7
			c0.1,1,0.6,2,1.6,2.9c1,0.9,2,1.4,3.1,1.4c1,0,1.9-0.4,2.6-1.2C90,46.9,90.3,46.4,90.5,45.7z"/>
		<path class="st1" d="M108.5,18.5c1.5,0.3,2.9,1.2,4,2.8l5,7l-3,2.2l-4.7-6.5c-0.7-0.9-1.4-1.5-2.2-1.6c-0.8-0.2-1.6,0.1-2.5,0.6
			c-0.8,0.6-1.3,1.3-1.4,2.1c-0.1,0.8,0.1,1.7,0.8,2.6l4.7,6.5l-3,2.2l-4.7-6.5c-0.7-0.9-1.4-1.5-2.2-1.6c-0.8-0.2-1.6,0.1-2.5,0.6
			c-0.8,0.6-1.3,1.3-1.4,2.1c-0.1,0.8,0.1,1.7,0.8,2.6l4.7,6.5l-3,2.2l-8.5-11.9l3-2.2l1,1.4c0-0.8,0.2-1.5,0.6-2.2
			c0.4-0.7,1-1.3,1.7-1.9c0.9-0.7,1.9-1.1,2.9-1.2c1-0.1,2,0,2.9,0.5c-0.1-1,0.1-1.9,0.5-2.9c0.4-0.9,1.1-1.7,1.9-2.3
			C105.5,18.6,107,18.2,108.5,18.5z"/>
		<path class="st1" d="M113.1,12.1c-0.6-0.2-1-0.5-1.3-1.1c-0.3-0.6-0.3-1.1-0.1-1.7c0.2-0.6,0.6-1,1.2-1.3c0.6-0.3,1.2-0.3,1.7-0.2
			c0.6,0.2,1,0.5,1.3,1.1c0.3,0.6,0.3,1.1,0.1,1.7c-0.2,0.6-0.6,1-1.2,1.3C114.2,12.2,113.7,12.3,113.1,12.1z M117.2,12.7l6.5,13.1
			l-3.3,1.6l-6.5-13.1L117.2,12.7z"/>
		<path class="st1" d="M133.6,7.8c1.4,0.7,2.4,1.9,3.1,3.8l2.9,8.1l-3.5,1.2l-2.7-7.6c-0.4-1.1-1-1.8-1.7-2.2
			c-0.8-0.4-1.6-0.4-2.5-0.1c-1,0.3-1.6,0.9-2,1.7c-0.3,0.8-0.3,1.7,0.1,2.8l2.7,7.6l-3.5,1.2l-4.9-13.7l3.5-1.2l0.6,1.7
			c0.3-0.8,0.7-1.4,1.3-2c0.6-0.6,1.3-1,2.2-1.4C130.7,7,132.2,7.1,133.6,7.8z"/>
		<path class="st1" d="M148.3,3.3c0.9,0.3,1.6,0.7,2.2,1.3l-0.4-2.1l3.7-0.7l2.6,14.5c0.2,1.3,0.2,2.6-0.2,3.7c-0.3,1.1-1,2.1-2,2.9
			c-1,0.8-2.2,1.3-3.7,1.6c-2,0.4-3.8,0.2-5.3-0.5c-1.5-0.7-2.5-1.9-2.9-3.5L146,20c0.3,0.6,0.8,1.1,1.5,1.3
			c0.7,0.3,1.5,0.3,2.4,0.2c1.1-0.2,1.9-0.7,2.4-1.4c0.5-0.8,0.7-1.8,0.5-3l-0.4-2.2c-0.3,0.8-0.9,1.4-1.6,2s-1.6,1-2.7,1.2
			c-1.2,0.2-2.4,0.1-3.5-0.3c-1.1-0.4-2.1-1.2-2.9-2.2c-0.8-1-1.3-2.3-1.6-3.7c-0.3-1.5-0.2-2.8,0.2-4c0.4-1.2,1-2.2,1.9-3
			c0.9-0.8,1.9-1.3,3.2-1.5C146.4,3,147.4,3.1,148.3,3.3z M150.5,7.6c-0.5-0.6-1-1-1.7-1.2c-0.7-0.2-1.3-0.3-2-0.2
			c-0.7,0.1-1.3,0.4-1.8,0.8c-0.5,0.4-0.9,1-1.1,1.7c-0.2,0.7-0.3,1.5-0.1,2.3c0.2,0.9,0.5,1.6,0.9,2.2c0.5,0.6,1,1,1.7,1.2
			c0.6,0.2,1.3,0.3,1.9,0.2c0.7-0.1,1.3-0.4,1.8-0.9c0.5-0.4,0.9-1,1.1-1.7c0.2-0.7,0.3-1.5,0.1-2.4C151.3,8.9,150.9,8.2,150.5,7.6z
			"/>
		<path class="st1" d="M167.8,15.5c-0.9-0.5-1.7-1.1-2.2-1.8s-0.8-1.6-0.8-2.5l3.7,0.1c0.1,0.6,0.3,1,0.8,1.4
			c0.5,0.4,1.1,0.6,1.8,0.6c0.7,0,1.3-0.1,1.7-0.4c0.4-0.3,0.6-0.6,0.6-1.1c0-0.5-0.2-0.8-0.7-1.1c-0.5-0.3-1.2-0.5-2.3-0.8
			c-1.1-0.3-2-0.6-2.6-0.9c-0.7-0.3-1.3-0.7-1.8-1.3c-0.5-0.6-0.7-1.4-0.7-2.4c0-0.8,0.3-1.5,0.8-2.2c0.5-0.7,1.2-1.2,2-1.5
			c0.9-0.4,1.9-0.5,3.1-0.5c1.7,0.1,3.1,0.5,4.1,1.4c1,0.9,1.5,2.1,1.6,3.6L173.3,6c0-0.6-0.3-1-0.7-1.4c-0.4-0.4-1-0.5-1.7-0.6
			c-0.7,0-1.2,0.1-1.6,0.3c-0.4,0.2-0.6,0.6-0.6,1c0,0.5,0.2,0.9,0.7,1.1c0.5,0.3,1.2,0.6,2.3,0.8c1,0.3,1.9,0.6,2.6,0.9
			c0.7,0.3,1.3,0.8,1.7,1.4c0.5,0.6,0.7,1.4,0.7,2.4c0,0.8-0.3,1.6-0.8,2.2c-0.5,0.7-1.2,1.2-2.1,1.5c-0.9,0.4-1.9,0.5-3.1,0.5
			C169.8,16.2,168.7,15.9,167.8,15.5z"/>
		<path class="st1" d="M181.8,16.1c-1-0.8-1.7-1.8-2.1-3.1c-0.4-1.2-0.5-2.6-0.3-4.1c0.3-1.5,0.8-2.7,1.7-3.7c0.8-1,1.9-1.7,3.1-2.1
			c1.2-0.4,2.5-0.5,3.9-0.3c1.4,0.2,2.6,0.8,3.6,1.6c1,0.8,1.7,1.8,2.2,3.1c0.5,1.2,0.5,2.6,0.3,4.1c-0.3,1.5-0.8,2.7-1.7,3.7
			c-0.9,1-1.9,1.7-3.2,2.1c-1.2,0.4-2.6,0.5-4,0.2C184,17.5,182.8,16.9,181.8,16.1z M187.9,14.4c0.6-0.2,1.2-0.6,1.6-1.2
			c0.5-0.6,0.8-1.3,0.9-2.2c0.2-1.4,0.1-2.5-0.5-3.3c-0.6-0.9-1.4-1.4-2.4-1.6c-1-0.2-2,0-2.8,0.6c-0.8,0.6-1.4,1.6-1.6,3
			c-0.2,1.4-0.1,2.5,0.5,3.3c0.6,0.9,1.3,1.4,2.4,1.6C186.6,14.7,187.3,14.6,187.9,14.4z"/>
		<path class="st1" d="M197.7,19.6c-0.9-1-1.4-2.1-1.6-3.4c-0.2-1.3-0.1-2.6,0.4-4s1.2-2.5,2.2-3.4c1-0.9,2.1-1.4,3.4-1.6
			c1.3-0.2,2.6-0.1,3.9,0.4c1.3,0.5,2.4,1.2,3.3,2.1c0.9,1,1.4,2.1,1.7,3.4c0.3,1.3,0.1,2.6-0.4,4.1c-0.5,1.4-1.2,2.5-2.3,3.4
			c-1,0.9-2.2,1.4-3.5,1.6c-1.3,0.2-2.6,0.1-4-0.4C199.6,21.3,198.6,20.6,197.7,19.6z M204,18.9c0.7-0.1,1.3-0.4,1.8-0.9
			c0.5-0.5,1-1.2,1.3-2.1c0.5-1.3,0.5-2.4,0-3.4c-0.4-0.9-1.2-1.6-2.2-1.9c-1-0.3-2-0.3-2.9,0.2c-0.9,0.5-1.6,1.4-2.1,2.7
			c-0.5,1.3-0.5,2.4-0.1,3.4c0.4,0.9,1.1,1.6,2.1,1.9C202.7,18.9,203.3,19,204,18.9z"/>
		<path class="st1" d="M227.2,19.1c0.4,1.5,0.2,3.1-0.8,4.8l-4,7.5l-3.3-1.7l3.8-7.1c0.5-1,0.7-1.9,0.5-2.8
			c-0.2-0.8-0.8-1.5-1.6-1.9c-0.9-0.5-1.8-0.6-2.6-0.3c-0.8,0.3-1.5,0.9-2,1.9l-3.8,7.1l-3.2-1.7l6.9-12.9l3.2,1.7l-0.9,1.6
			c0.7-0.3,1.5-0.5,2.4-0.4c0.8,0,1.7,0.3,2.5,0.7C225.8,16.5,226.8,17.7,227.2,19.1z"/>
		<path class="st1" d="M237,28c1.2-0.5,2.4-0.6,3.5-0.4c1.2,0.2,2.2,0.7,3.2,1.5c0.8,0.7,1.4,1.5,1.7,2.4c0.3,0.9,0.5,1.7,0.4,2.5
			l1.4-1.6l2.8,2.4l-9.6,11l-2.8-2.4l1.4-1.6c-0.8,0.2-1.7,0.2-2.6,0c-0.9-0.2-1.8-0.7-2.6-1.4c-0.9-0.8-1.6-1.8-1.9-2.9
			c-0.3-1.1-0.4-2.3,0-3.6c0.3-1.3,1-2.4,1.9-3.6C234.8,29.2,235.8,28.5,237,28z M243.5,35.9c0.2-0.7,0.1-1.4-0.1-2
			c-0.2-0.7-0.6-1.2-1.1-1.7c-0.5-0.4-1.1-0.7-1.8-0.9c-0.7-0.1-1.3-0.1-2,0.2c-0.7,0.2-1.3,0.7-1.9,1.4c-0.6,0.7-0.9,1.4-1.1,2.1
			c-0.2,0.7-0.1,1.4,0.1,2.1c0.2,0.7,0.6,1.2,1.1,1.6c0.5,0.5,1.1,0.7,1.8,0.9c0.7,0.1,1.4,0.1,2-0.2c0.7-0.3,1.3-0.7,1.9-1.4
			S243.4,36.6,243.5,35.9z"/>
		<path class="st1" d="M258.8,45.6c0.2,0.9,0.2,1.8-0.1,2.6l1.6-1.3l2.4,2.9l-11.4,9.3c-1.1,0.9-2.2,1.4-3.3,1.7
			c-1.2,0.3-2.3,0.2-3.5-0.3c-1.2-0.4-2.2-1.3-3.2-2.5c-1.3-1.6-2-3.2-2.1-4.9c-0.1-1.6,0.5-3.1,1.6-4.2l2.3,2.8
			c-0.4,0.6-0.5,1.2-0.4,2c0.1,0.7,0.4,1.5,1,2.2c0.7,0.8,1.5,1.3,2.4,1.4c0.9,0.1,1.9-0.2,2.9-1.1l1.8-1.4
			c-0.8,0.1-1.7-0.1-2.6-0.4c-0.9-0.4-1.7-0.9-2.3-1.8c-0.8-1-1.2-2-1.4-3.2c-0.2-1.2,0-2.4,0.5-3.6c0.5-1.2,1.4-2.2,2.5-3.2
			c1.1-0.9,2.3-1.5,3.6-1.8c1.3-0.3,2.4-0.2,3.6,0.2c1.1,0.4,2.1,1.1,2.9,2C258.2,43.8,258.7,44.7,258.8,45.6z M256.2,49.6
			c0.3-0.7,0.4-1.4,0.2-2c-0.1-0.7-0.4-1.3-0.8-1.8c-0.4-0.5-1-0.9-1.6-1.2c-0.6-0.2-1.3-0.3-2-0.2c-0.7,0.1-1.4,0.5-2.1,1
			c-0.7,0.6-1.2,1.2-1.4,1.9c-0.3,0.7-0.4,1.4-0.3,2.1c0.1,0.7,0.4,1.3,0.8,1.8c0.4,0.5,1,0.9,1.6,1.2c0.6,0.2,1.3,0.3,2,0.2
			c0.7-0.1,1.4-0.5,2.1-1.1C255.4,50.9,255.9,50.3,256.2,49.6z"/>
		<path class="st1" d="M265.2,70l-5.4-9.2c-0.9,0.6-1.4,1.3-1.6,2.2c-0.2,0.9,0,1.7,0.4,2.5c0.7,1.2,1.7,1.7,3,1.6l2,3.4
			c-1.4,0.3-2.8,0.2-4.2-0.4c-1.4-0.6-2.5-1.6-3.4-3.1c-0.7-1.2-1.1-2.5-1.1-3.7c0-1.3,0.3-2.5,1-3.6s1.7-2,3-2.8
			c1.3-0.8,2.6-1.2,3.9-1.2s2.5,0.3,3.6,0.9c1.1,0.6,2,1.6,2.7,2.8c0.7,1.2,1.1,2.4,1.1,3.7c0,1.2-0.3,2.4-0.9,3.5
			c-0.6,1.1-1.6,2-2.8,2.7C266,69.7,265.6,69.9,265.2,70z M265.5,65.6c0.8-0.5,1.3-1.2,1.5-2c0.2-0.9,0-1.7-0.5-2.5
			c-0.5-0.8-1.1-1.3-1.9-1.6c-0.8-0.3-1.6-0.2-2.6,0.2L265.5,65.6z"/>
		<path class="st1" d="M277.4,81.8c-0.6,1.4-1.9,2.4-3.7,3.2l-8,3.1l-1.3-3.4l7.5-2.9c1.1-0.4,1.8-1,2.2-1.8c0.4-0.8,0.4-1.6,0-2.5
			c-0.4-1-0.9-1.6-1.7-1.9c-0.8-0.3-1.7-0.3-2.8,0.1l-7.5,2.9l-1.3-3.4l13.6-5.3l1.3,3.4l-1.7,0.7c0.8,0.2,1.5,0.6,2.1,1.2
			c0.6,0.6,1.1,1.3,1.4,2.2C278.1,78.9,278.1,80.4,277.4,81.8z"/>
		<path class="st1" d="M277.5,88.4c1.2,0.4,2.3,1,3.1,1.9c0.8,0.9,1.4,2.1,1.7,3.5c0.4,1.8,0.3,3.3-0.4,4.7
			c-0.6,1.3-1.7,2.4-3.2,3.1l-0.8-3.9c0.6-0.3,1-0.8,1.2-1.4c0.2-0.6,0.3-1.2,0.1-1.9c-0.2-1-0.8-1.8-1.6-2.2
			c-0.9-0.4-2-0.5-3.4-0.2c-1.4,0.3-2.3,0.8-3,1.6c-0.6,0.8-0.8,1.7-0.6,2.7c0.3,1.5,1.2,2.3,2.6,2.4l0.8,3.9
			c-1.6-0.1-3-0.6-4.2-1.5c-1.2-1-1.9-2.3-2.3-4.1c-0.3-1.4-0.3-2.7,0.1-3.9c0.4-1.2,1.1-2.2,2-3.1c1-0.8,2.2-1.4,3.7-1.7
			C274.9,88,276.3,88,277.5,88.4z"/>
		<path class="st1" d="M285,118.7l-22-7.6l-0.3-3.9l7.5,2.7l13.8-6.8l0.3,4.1l-9.9,4.4l10.4,3.1L285,118.7z"/>
		<path class="st1" d="M283.2,134.7c0.3,0.9,0.4,1.9,0.2,2.9c-0.2,1.2-0.7,2.3-1.4,3.2c-0.8,0.9-1.8,1.6-3,2c-1.2,0.4-2.6,0.5-4,0.3
			c-1.5-0.2-2.7-0.7-3.8-1.5c-1-0.8-1.8-1.7-2.3-2.8c-0.5-1.1-0.6-2.3-0.4-3.5c0.2-1.1,0.5-2,1.1-2.7c0.6-0.7,1.2-1.3,1.9-1.7
			l-8.9-1.4l0.6-3.6l21.3,3.3l-0.6,3.6l-2.1-0.3C282.4,133.1,282.9,133.9,283.2,134.7z M277.9,139.2c0.7-0.3,1.2-0.7,1.7-1.2
			s0.7-1.1,0.8-1.8c0.1-0.7,0-1.3-0.2-1.9c-0.3-0.6-0.7-1.2-1.3-1.6c-0.6-0.5-1.3-0.7-2.2-0.9c-0.9-0.1-1.6-0.1-2.3,0.2
			c-0.7,0.3-1.3,0.6-1.7,1.2c-0.4,0.5-0.7,1.1-0.8,1.8c-0.1,0.7,0,1.3,0.2,2c0.3,0.6,0.7,1.2,1.3,1.6c0.6,0.5,1.3,0.8,2.2,0.9
			C276.4,139.5,277.2,139.5,277.9,139.2z"/>
		<path class="st1" d="M266.9,146.7c0.9-0.9,2.1-1.4,3.3-1.7c1.3-0.3,2.6-0.1,4.1,0.3c1.4,0.5,2.6,1.2,3.5,2.2
			c0.9,1,1.4,2.1,1.7,3.4c0.2,1.3,0.1,2.6-0.3,3.9c-0.4,1.3-1.1,2.5-2.1,3.3c-0.9,0.9-2.1,1.5-3.4,1.7c-1.3,0.3-2.6,0.2-4.1-0.3
			c-1.4-0.5-2.6-1.2-3.4-2.2c-0.9-1-1.4-2.1-1.7-3.4c-0.2-1.3-0.1-2.6,0.3-4C265.3,148.7,266,147.6,266.9,146.7z M267.8,153
			c0.1,0.7,0.4,1.3,1,1.8c0.5,0.5,1.2,0.9,2.1,1.2c1.3,0.4,2.4,0.4,3.4,0c0.9-0.5,1.6-1.2,1.9-2.2c0.3-1,0.2-2-0.2-2.9
			c-0.5-0.9-1.4-1.6-2.7-2c-1.3-0.4-2.4-0.4-3.4,0c-0.9,0.4-1.6,1.1-1.9,2.1C267.7,151.7,267.7,152.3,267.8,153z"/>
		<path class="st1" d="M272.1,170.3c0.1,0.9-0.1,1.8-0.5,2.6l-3.5-1.7l0.4-0.9c0.5-1,0.6-2,0.4-2.7c-0.2-0.8-1-1.4-2.2-2l-6.6-3.1
			l1.6-3.3l13.2,6.3l-1.6,3.3l-2-1C271.8,168.6,272,169.5,272.1,170.3z"/>
		<path class="st1" d="M264.9,178.1l-6.1-3.6c-0.4-0.3-0.8-0.3-1.1-0.2c-0.3,0.1-0.6,0.4-0.9,0.9l-0.9,1.5l-2.7-1.6l1.2-2
			c1.6-2.7,3.7-3.2,6.3-1.7l6,3.6l0.9-1.5l2.6,1.6l-0.9,1.5l3.1,1.9l-1.9,3.2l-3.1-1.9l-1.7,2.8l-2.6-1.6L264.9,178.1z"/>
		<path class="st1" d="M257.3,189.1l1.5-2.1l-9.3-6.8l2.2-3l9.3,6.8l1-1.3l2.4,1.8l-1,1.3l0.6,0.4c1.4,1.1,2.2,2.2,2.3,3.6
			c0.1,1.3-0.5,2.8-1.8,4.4l-2.5-1.8c0.5-0.7,0.8-1.3,0.7-1.8c-0.1-0.5-0.4-0.9-1.1-1.4l-0.5-0.4l-1.5,2.1L257.3,189.1z"/>
		<path class="st1" d="M245.6,186.2c1.2-0.4,2.5-0.4,3.7-0.1c1.3,0.3,2.4,1,3.5,2c1.1,1,1.8,2.2,2.2,3.4c0.4,1.3,0.4,2.5,0.1,3.8
			c-0.3,1.3-1,2.4-1.9,3.4c-1,1-2.1,1.7-3.3,2.1c-1.2,0.4-2.5,0.5-3.8,0.2c-1.3-0.3-2.5-1-3.6-2c-1.1-1-1.8-2.2-2.2-3.4
			c-0.4-1.3-0.4-2.5-0.1-3.8c0.3-1.3,1-2.4,2-3.5C243.3,187.3,244.4,186.6,245.6,186.2z M243.7,192.2c-0.2,0.7-0.1,1.3,0.1,2
			c0.2,0.7,0.7,1.4,1.4,2c1,0.9,2,1.4,3.1,1.4c1,0,1.9-0.4,2.6-1.2c0.7-0.8,1.1-1.7,1-2.7c-0.1-1-0.6-2-1.6-3c-1-0.9-2-1.4-3-1.4
			c-1,0-1.9,0.4-2.6,1.1C244.2,191,243.9,191.6,243.7,192.2z"/>
		<path class="st1" d="M245.3,212.6l-12.6-14.9l2.8-2.4l12.6,14.9L245.3,212.6z"/>
		<path class="st1" d="M235.7,213.8L227,202l3-2.2l8.7,11.7L235.7,213.8z M239.9,213.6c0.6,0.1,1.1,0.4,1.4,0.9
			c0.4,0.5,0.5,1,0.4,1.6c-0.1,0.6-0.4,1.1-0.9,1.5c-0.5,0.4-1.1,0.5-1.7,0.5c-0.6-0.1-1.1-0.4-1.4-0.9c-0.4-0.5-0.5-1-0.4-1.6
			c0.1-0.6,0.4-1.1,0.9-1.5C238.7,213.7,239.3,213.5,239.9,213.6z"/>
		<path class="st1" d="M222.6,205.9c1.3,0,2.5,0.3,3.6,1c1.1,0.7,2.1,1.6,2.8,2.9c0.7,1.3,1.1,2.6,1.1,3.9c0,1.3-0.3,2.5-1,3.6
			c-0.7,1.1-1.6,2-2.8,2.7c-1.2,0.7-2.5,1.1-3.8,1.1c-1.3,0-2.5-0.3-3.7-0.9c-1.1-0.7-2.1-1.6-2.8-2.9c-0.7-1.3-1.1-2.6-1.1-3.9
			c0-1.3,0.4-2.5,1.1-3.7c0.7-1.1,1.6-2,2.9-2.7C220,206.3,221.3,205.9,222.6,205.9z M219,211.1c-0.3,0.6-0.5,1.2-0.5,2
			c0,0.7,0.3,1.5,0.7,2.3c0.7,1.2,1.5,1.9,2.5,2.2c1,0.3,2,0.2,2.9-0.4c0.9-0.5,1.5-1.3,1.7-2.3c0.2-1,0-2.1-0.7-3.3
			c-0.7-1.2-1.5-2-2.5-2.3c-1-0.3-1.9-0.2-2.8,0.3C219.8,210.1,219.4,210.6,219,211.1z"/>
		<path class="st1" d="M197.1,230.4c-1.4-0.7-2.3-2-2.9-3.9l-2.6-8.2l3.5-1.1l2.4,7.7c0.3,1.1,0.9,1.9,1.6,2.3
			c0.7,0.4,1.6,0.5,2.5,0.2c1-0.3,1.6-0.8,2-1.6c0.4-0.8,0.4-1.7,0-2.8l-2.4-7.7l3.5-1.1l4.4,13.9l-3.5,1.1l-0.5-1.7
			c-0.3,0.8-0.7,1.4-1.3,2c-0.6,0.6-1.4,1-2.2,1.3C200,231.3,198.5,231.2,197.1,230.4z"/>
		<path class="st1" d="M176.4,227.1l10.6-1.6c-0.2-1-0.7-1.8-1.5-2.3c-0.7-0.5-1.6-0.7-2.5-0.5c-1.4,0.2-2.2,0.9-2.6,2.2l-3.9,0.6
			c0.2-1.5,0.8-2.7,1.9-3.8c1.1-1.1,2.4-1.7,4.2-2c1.4-0.2,2.7-0.1,3.9,0.4c1.2,0.5,2.2,1.2,3,2.2c0.8,1,1.3,2.3,1.5,3.8
			c0.2,1.5,0.1,2.9-0.3,4.1c-0.4,1.2-1.2,2.2-2.2,3c-1,0.8-2.2,1.3-3.6,1.5c-1.4,0.2-2.6,0.1-3.8-0.3c-1.2-0.4-2.1-1.1-2.9-2.1
			c-0.8-1-1.2-2.2-1.5-3.6C176.4,228,176.4,227.5,176.4,227.1z M180.4,229c0.2,0.9,0.6,1.6,1.4,2.1c0.7,0.5,1.6,0.6,2.6,0.5
			c0.9-0.1,1.6-0.5,2.2-1.2c0.5-0.6,0.8-1.5,0.8-2.5L180.4,229z"/>
		<path class="st1" d="M152.7,235.2l4.8-14.4l4,0.1l2.3,10.3l3-10.1l4,0.1l3.8,14.7l-3.7-0.1l-2.2-11.2l-3.2,11l-3.9-0.1l-2.4-11.2
			l-3,11L152.7,235.2z"/>
		<path class="st1" d="M136.8,231c-0.9,0.2-1.9,0.1-2.9-0.2c-1.2-0.3-2.2-1-3-1.8c-0.8-0.9-1.3-1.9-1.6-3.2c-0.3-1.3-0.2-2.6,0.2-4
			c0.4-1.4,1.1-2.6,1.9-3.6c0.9-0.9,1.9-1.6,3-1.9c1.1-0.3,2.3-0.3,3.5,0c1,0.3,1.9,0.8,2.6,1.4c0.7,0.6,1.1,1.4,1.4,2.2l0.6-2
			l3.5,1l-5.4,18.7l-3.5-1l2-6.8C138.5,230.5,137.7,230.8,136.8,231z M133,225.2c0.2,0.7,0.5,1.3,1,1.8c0.5,0.5,1,0.8,1.7,1
			c0.6,0.2,1.3,0.2,2,0c0.7-0.2,1.3-0.5,1.8-1c0.5-0.5,0.9-1.2,1.2-2.1c0.2-0.8,0.3-1.6,0.1-2.4c-0.2-0.7-0.5-1.3-1-1.8
			c-0.5-0.5-1-0.8-1.7-1c-0.7-0.2-1.3-0.2-2,0c-0.7,0.2-1.3,0.5-1.8,1s-0.9,1.2-1.2,2.1C132.9,223.7,132.9,224.5,133,225.2z"/>
		<path class="st1" d="M118.8,224.4c-0.9,0.1-1.8-0.1-2.7-0.5l1.6-3.5l0.9,0.4c1.1,0.5,2,0.6,2.7,0.3c0.8-0.3,1.4-1,2-2.2l3-6.6
			l3.4,1.5l-6.1,13.3l-3.4-1.5l0.9-2.1C120.5,224,119.6,224.3,118.8,224.4z"/>
		<path class="st1" d="M114.6,219.4c-1.1,0.7-2.2,1-3.4,1c-1.2,0-2.3-0.3-3.4-1c-0.9-0.6-1.6-1.2-2.1-2c-0.5-0.8-0.7-1.6-0.8-2.4
			l-1.1,1.8l-3.2-1.9l7.6-12.5l3.2,1.9l-1.1,1.8c0.8-0.3,1.6-0.5,2.6-0.4c0.9,0.1,1.9,0.4,2.8,0.9c1.1,0.6,1.8,1.5,2.4,2.6
			c0.5,1.1,0.8,2.2,0.7,3.5c-0.1,1.3-0.5,2.6-1.3,3.8C116.6,217.8,115.7,218.7,114.6,219.4z M106.8,212.7c0,0.7,0.1,1.4,0.5,2
			c0.3,0.6,0.8,1.1,1.4,1.4c0.6,0.4,1.2,0.5,1.9,0.6c0.7,0,1.3-0.2,2-0.5c0.6-0.4,1.2-0.9,1.6-1.7c0.5-0.8,0.7-1.5,0.7-2.3
			c0-0.8-0.1-1.4-0.4-2c-0.3-0.6-0.8-1.1-1.3-1.4c-0.6-0.4-1.2-0.5-1.9-0.6c-0.7,0-1.3,0.2-2,0.5c-0.6,0.4-1.2,0.9-1.6,1.7
			C107.1,211.3,106.9,212,106.8,212.7z"/>
		<path class="st1" d="M87.9,202.5c-0.1-1.5,0.5-3,1.8-4.5l5.6-6.5l2.8,2.4l-5.3,6.1c-0.8,0.9-1.1,1.7-1.1,2.6
			c0,0.9,0.4,1.6,1.2,2.3c0.8,0.7,1.6,1,2.4,0.9c0.9-0.1,1.7-0.6,2.4-1.5l5.3-6.1l2.8,2.4l-9.5,11.1l-2.8-2.4l1.2-1.4
			c-0.8,0.2-1.6,0.1-2.4-0.1c-0.8-0.2-1.6-0.6-2.3-1.2C88.7,205.4,88,204.1,87.9,202.5z"/>
		<path class="st1" d="M84.7,196.7c-1.3,0.3-2.4,0.2-3.6-0.2c-1.1-0.4-2.1-1.1-2.9-2c-0.6-0.7-1-1.6-1.3-2.5c-0.2-0.9-0.2-1.8,0-2.6
			l-5.3,4.4l-2.4-2.9l15-12.5l2.4,2.9l-1.7,1.4c0.8-0.1,1.7,0,2.6,0.4c0.9,0.4,1.6,0.9,2.3,1.8c0.8,0.9,1.3,2,1.4,3.2
			c0.2,1.2,0,2.4-0.5,3.6c-0.5,1.2-1.3,2.3-2.5,3.2C87.1,195.9,85.9,196.5,84.7,196.7z M79.5,187.9c-0.3,0.7-0.3,1.4-0.2,2
			c0.1,0.7,0.4,1.3,0.8,1.8c0.4,0.5,1,0.9,1.6,1.1c0.6,0.2,1.3,0.3,2,0.1c0.7-0.1,1.4-0.5,2.1-1c0.7-0.6,1.2-1.2,1.4-1.9
			c0.3-0.7,0.4-1.4,0.3-2.1c-0.1-0.7-0.4-1.3-0.8-1.8c-0.4-0.5-1-0.9-1.6-1.2c-0.6-0.2-1.3-0.3-2-0.2s-1.4,0.5-2.1,1.1
			C80.3,186.6,79.8,187.2,79.5,187.9z"/>
		<path class="st1" d="M64.1,172.4c-0.8-0.5-1.4-1.3-1.9-2.2c-0.6-1.1-0.8-2.3-0.7-3.4c0.1-1.2,0.5-2.3,1.3-3.3
			c0.7-1,1.8-1.9,3.1-2.6c1.3-0.7,2.6-1,3.9-1c1.3,0,2.4,0.3,3.5,0.9c1,0.6,1.8,1.5,2.4,2.6c0.5,1,0.7,1.9,0.7,2.8
			c0,0.9-0.2,1.8-0.6,2.5l8.1-4.1l1.7,3.3l-19.2,9.7l-1.7-3.3l1.9-0.9C65.7,173.2,64.9,172.9,64.1,172.4z M65.8,165.7
			c-0.4,0.6-0.6,1.3-0.7,1.9c0,0.7,0.1,1.3,0.4,1.9c0.3,0.6,0.7,1.1,1.3,1.5s1.2,0.6,2,0.6c0.7,0,1.5-0.2,2.3-0.5
			c0.8-0.4,1.4-0.9,1.8-1.5c0.4-0.6,0.6-1.3,0.7-1.9c0-0.7-0.1-1.3-0.4-1.9c-0.3-0.6-0.8-1.1-1.3-1.5c-0.6-0.4-1.2-0.6-2-0.6
			c-0.7,0-1.5,0.2-2.3,0.6C66.8,164.6,66.2,165.1,65.8,165.7z"/>
		<path class="st1" d="M56.7,154.8c-0.7-0.6-1.2-1.3-1.5-2.3l3.7-1.3l0.3,0.9c0.4,1.1,0.9,1.8,1.6,2.2c0.7,0.4,1.7,0.3,3-0.1
			l6.9-2.4l1.2,3.5l-13.8,4.8l-1.2-3.5l2.1-0.7C58.2,155.8,57.4,155.4,56.7,154.8z"/>
		<path class="st1" d="M67.4,143.4c-0.4,1.2-1.1,2.3-2,3.1c-1,0.9-2.2,1.4-3.7,1.8c-1.5,0.3-2.8,0.3-4.1-0.2
			c-1.3-0.4-2.3-1.1-3.1-2.1s-1.4-2.2-1.7-3.5c-0.3-1.4-0.2-2.7,0.1-3.9c0.4-1.2,1.1-2.3,2-3.2c1-0.9,2.2-1.5,3.7-1.8
			c1.5-0.3,2.8-0.2,4.1,0.2c1.3,0.4,2.3,1.1,3.2,2.1c0.8,1,1.4,2.2,1.7,3.6C67.8,140.8,67.7,142.2,67.4,143.4z M63.5,138.4
			c-0.4-0.5-1-0.9-1.7-1.1c-0.7-0.2-1.5-0.2-2.4,0c-1.4,0.3-2.3,0.9-2.9,1.7c-0.6,0.9-0.8,1.8-0.5,2.8c0.2,1,0.8,1.8,1.6,2.4
			c0.9,0.5,2,0.7,3.4,0.4c1.4-0.3,2.3-0.8,2.9-1.7c0.6-0.8,0.8-1.8,0.6-2.8C64.2,139.5,63.9,138.9,63.5,138.4z"/>
		<path class="st1" d="M54.2,130.6c-1.2-0.5-2.1-1.3-2.7-2.3c-0.7-1-1-2.1-1.1-3.4c0-0.9,0.1-1.9,0.5-2.7c0.4-0.9,0.9-1.6,1.6-2.1
			l-6.9,0.3l-0.2-3.7l19.5-0.9l0.2,3.7l-2.2,0.1c0.7,0.4,1.3,1,1.8,1.8c0.5,0.8,0.7,1.8,0.8,2.8c0.1,1.2-0.2,2.4-0.8,3.4
			c-0.6,1-1.4,1.9-2.6,2.5c-1.1,0.6-2.4,1-3.9,1.1C56.7,131.4,55.4,131.2,54.2,130.6z M55.4,120.5c-0.6,0.4-1.1,0.9-1.4,1.5
			c-0.3,0.6-0.5,1.3-0.4,1.9c0,0.7,0.2,1.3,0.6,1.9c0.4,0.6,0.9,1,1.5,1.3c0.7,0.3,1.4,0.5,2.3,0.4c0.9,0,1.6-0.3,2.3-0.6
			c0.6-0.4,1.1-0.9,1.5-1.5c0.3-0.6,0.5-1.2,0.4-1.9c0-0.7-0.2-1.3-0.6-1.9c-0.4-0.6-0.9-1-1.5-1.4c-0.7-0.3-1.4-0.5-2.3-0.4
			C56.8,119.9,56.1,120.1,55.4,120.5z"/>
		<path class="st1" d="M52.1,97.5l14.5,1.8l-0.5,3.7l-1.8-0.2c0.6,0.5,1,1.2,1.3,2c0.3,0.8,0.3,1.6,0.2,2.5
			c-0.1,1.1-0.5,2.1-1.1,2.9c-0.6,0.8-1.4,1.4-2.4,1.8c-1,0.4-2.1,0.5-3.4,0.3l-8.5-1l0.4-3.7l8,1c1.2,0.1,2.1,0,2.8-0.5
			c0.7-0.5,1.1-1.2,1.2-2.2c0.1-1-0.1-1.8-0.6-2.5c-0.5-0.7-1.4-1-2.6-1.2l-8-1L52.1,97.5z"/>
		<path class="st1" d="M56.5,93.2c-0.9-0.9-1.5-2-1.8-3.2c-0.3-1.2-0.3-2.5,0.1-3.9c0.5-1.7,1.3-3.1,2.5-3.9
			c1.2-0.9,2.6-1.3,4.3-1.2l-1.1,3.8c-0.7,0-1.2,0.2-1.7,0.6c-0.5,0.4-0.8,0.9-1,1.6c-0.3,1-0.1,1.9,0.4,2.7
			c0.6,0.8,1.5,1.4,2.9,1.8c1.3,0.4,2.5,0.4,3.4,0c0.9-0.4,1.5-1.1,1.8-2.1c0.4-1.4,0-2.6-1.1-3.4l1.1-3.8c1.4,0.8,2.4,1.9,3,3.3
			c0.6,1.4,0.6,3,0.1,4.7c-0.4,1.4-1,2.5-1.9,3.3c-0.9,0.9-2,1.5-3.2,1.7c-1.3,0.3-2.6,0.2-4.1-0.2C58.6,94.8,57.4,94.1,56.5,93.2z"
			/>
		<path class="st1" d="M62.9,73.2l6.5,2.7c0.5,0.2,0.8,0.2,1.1,0.1c0.3-0.1,0.5-0.5,0.8-1l0.7-1.6l2.9,1.2l-0.9,2.1
			c-1.2,2.9-3.2,3.7-6,2.6l-6.5-2.7l-0.7,1.6L58,77.1l0.7-1.6l-3.3-1.4l1.4-3.4l3.3,1.4l1.3-3l2.8,1.2L62.9,73.2z"/>
	</g>
	<g class="st0">
		<path class="st1" d="M99.2,78.9c-0.4-0.8-0.6-1.6-0.5-2.5c0.1-0.9,0.4-1.7,0.9-2.5c0.7-1,1.5-1.7,2.5-2.1c1-0.3,2-0.3,3.1,0.1
			l-1.5,2.3c-0.4-0.1-0.9-0.1-1.3,0c-0.4,0.2-0.7,0.4-1,0.9c-0.4,0.6-0.5,1.2-0.3,1.9c0.2,0.6,0.7,1.2,1.5,1.8
			c0.8,0.5,1.5,0.8,2.2,0.7c0.7-0.1,1.2-0.4,1.6-1c0.6-0.9,0.6-1.7,0-2.4l1.5-2.3c0.8,0.8,1.2,1.8,1.3,2.8c0.1,1-0.2,2.1-0.9,3.1
			c-0.5,0.8-1.2,1.4-2,1.8c-0.8,0.4-1.6,0.5-2.5,0.5c-0.9-0.1-1.8-0.4-2.6-1C100.2,80.4,99.6,79.7,99.2,78.9z"/>
		<path class="st1" d="M112.5,72.8c-0.8,0.3-1.7,0.3-2.6,0.1c-0.9-0.2-1.7-0.7-2.5-1.3c-0.8-0.7-1.3-1.5-1.6-2.3
			c-0.3-0.9-0.3-1.7-0.1-2.6c0.2-0.9,0.6-1.7,1.3-2.4c0.7-0.7,1.4-1.2,2.2-1.5c0.8-0.3,1.7-0.3,2.6-0.1c0.9,0.2,1.7,0.6,2.5,1.3
			c0.8,0.7,1.3,1.5,1.5,2.4c0.3,0.9,0.3,1.7,0.1,2.6c-0.2,0.9-0.7,1.7-1.3,2.4C114,72,113.3,72.5,112.5,72.8z M113.7,68.6
			c0.1-0.5,0.1-0.9-0.1-1.4c-0.2-0.5-0.5-0.9-1-1.4c-0.7-0.6-1.4-1-2.1-0.9c-0.7,0-1.3,0.3-1.8,0.8c-0.5,0.5-0.7,1.2-0.7,1.9
			c0,0.7,0.4,1.4,1.1,2c0.7,0.6,1.4,1,2.1,1c0.7,0,1.3-0.3,1.8-0.8C113.4,69.5,113.6,69.1,113.7,68.6z"/>
		<path class="st1" d="M126.1,49.8c1.1,0.2,2,0.8,2.8,1.9l3.4,4.8l-2.1,1.5l-3.2-4.5c-0.5-0.6-1-1-1.5-1.1c-0.6-0.1-1.1,0-1.7,0.4
			c-0.6,0.4-0.9,0.9-1,1.5c-0.1,0.6,0.1,1.2,0.6,1.8l3.2,4.5l-2.1,1.5l-3.2-4.5c-0.5-0.6-1-1-1.5-1.1c-0.6-0.1-1.1,0-1.7,0.4
			c-0.6,0.4-0.9,0.9-1,1.5c-0.1,0.6,0.1,1.2,0.6,1.8l3.2,4.5l-2.1,1.5l-5.9-8.2l2.1-1.5l0.7,1c0-0.5,0.2-1.1,0.4-1.5
			c0.3-0.5,0.7-0.9,1.2-1.3c0.6-0.5,1.3-0.7,2-0.8c0.7-0.1,1.4,0,2,0.3c-0.1-0.7,0-1.3,0.3-2c0.3-0.6,0.7-1.2,1.3-1.6
			C124,49.9,125.1,49.7,126.1,49.8z"/>
		<path class="st1" d="M129.3,45.5c-0.4-0.1-0.7-0.4-0.9-0.8c-0.2-0.4-0.2-0.8-0.1-1.1c0.1-0.4,0.4-0.7,0.8-0.9
			c0.4-0.2,0.8-0.2,1.2-0.1c0.4,0.1,0.7,0.4,0.9,0.8c0.2,0.4,0.2,0.8,0.1,1.1c-0.1,0.4-0.4,0.7-0.8,0.9
			C130.1,45.5,129.7,45.6,129.3,45.5z M132.1,45.9l4.5,9l-2.3,1.1l-4.5-9L132.1,45.9z"/>
		<path class="st1" d="M143.4,42.5c1,0.5,1.7,1.3,2.1,2.6l2,5.6l-2.4,0.9l-1.9-5.2c-0.3-0.8-0.7-1.3-1.2-1.5
			c-0.5-0.3-1.1-0.3-1.8-0.1c-0.7,0.2-1.1,0.6-1.3,1.2c-0.2,0.5-0.2,1.2,0,1.9l1.9,5.2l-2.4,0.9l-3.4-9.5l2.4-0.9l0.4,1.2
			c0.2-0.5,0.5-1,0.9-1.4c0.4-0.4,0.9-0.7,1.5-0.9C141.4,42,142.5,42,143.4,42.5z"/>
		<path class="st1" d="M153.5,39.4c0.6,0.2,1.1,0.5,1.5,0.9l-0.3-1.4l2.5-0.5l1.8,10c0.2,0.9,0.1,1.8-0.1,2.6
			c-0.2,0.8-0.7,1.5-1.3,2c-0.7,0.6-1.5,0.9-2.6,1.1c-1.4,0.3-2.6,0.1-3.6-0.4c-1-0.5-1.7-1.3-2-2.4l2.5-0.5c0.2,0.4,0.6,0.7,1,0.9
			c0.5,0.2,1,0.2,1.7,0.1c0.7-0.1,1.3-0.5,1.7-1c0.4-0.5,0.5-1.2,0.3-2.1l-0.3-1.5c-0.2,0.5-0.6,1-1.1,1.4c-0.5,0.4-1.1,0.7-1.9,0.8
			c-0.8,0.2-1.6,0.1-2.4-0.2c-0.8-0.3-1.4-0.8-2-1.5c-0.5-0.7-0.9-1.6-1.1-2.6c-0.2-1-0.1-1.9,0.1-2.8c0.3-0.8,0.7-1.5,1.3-2.1
			c0.6-0.5,1.3-0.9,2.2-1C152.2,39.2,152.9,39.2,153.5,39.4z M155,42.3c-0.3-0.4-0.7-0.7-1.1-0.8c-0.4-0.2-0.9-0.2-1.4-0.1
			c-0.5,0.1-0.9,0.3-1.2,0.6c-0.4,0.3-0.6,0.7-0.8,1.2c-0.2,0.5-0.2,1-0.1,1.6c0.1,0.6,0.3,1.1,0.6,1.5c0.3,0.4,0.7,0.7,1.2,0.9
			c0.4,0.2,0.9,0.2,1.3,0.1c0.5-0.1,0.9-0.3,1.2-0.6c0.4-0.3,0.6-0.7,0.8-1.2c0.2-0.5,0.2-1,0.1-1.6C155.6,43.2,155.4,42.7,155,42.3
			z"/>
		<path class="st1" d="M167,47.8c-0.6-0.3-1.1-0.7-1.5-1.3c-0.4-0.5-0.6-1.1-0.6-1.7l2.6,0.1c0,0.4,0.2,0.7,0.5,1
			c0.3,0.3,0.7,0.4,1.2,0.4c0.5,0,0.9-0.1,1.1-0.3c0.3-0.2,0.4-0.4,0.4-0.7c0-0.3-0.1-0.6-0.5-0.8c-0.3-0.2-0.9-0.4-1.6-0.6
			c-0.7-0.2-1.4-0.4-1.8-0.6s-0.9-0.5-1.2-0.9c-0.3-0.4-0.5-1-0.5-1.6c0-0.6,0.2-1.1,0.5-1.5c0.3-0.4,0.8-0.8,1.4-1
			c0.6-0.2,1.3-0.4,2.1-0.3c1.2,0,2.1,0.4,2.8,1c0.7,0.6,1.1,1.4,1.1,2.5l-2.4-0.1c0-0.4-0.2-0.7-0.5-1c-0.3-0.2-0.7-0.4-1.2-0.4
			c-0.5,0-0.8,0.1-1.1,0.2c-0.3,0.2-0.4,0.4-0.4,0.7c0,0.3,0.2,0.6,0.5,0.8s0.9,0.4,1.6,0.6c0.7,0.2,1.3,0.4,1.8,0.6
			c0.5,0.2,0.9,0.5,1.2,0.9c0.3,0.4,0.5,1,0.5,1.6c0,0.6-0.2,1.1-0.5,1.5c-0.3,0.4-0.8,0.8-1.4,1c-0.6,0.2-1.3,0.4-2.1,0.3
			C168.3,48.2,167.6,48.1,167,47.8z"/>
		<path class="st1" d="M176.6,48.2c-0.7-0.6-1.2-1.3-1.5-2.1c-0.3-0.9-0.4-1.8-0.2-2.8c0.2-1,0.6-1.9,1.1-2.6
			c0.6-0.7,1.3-1.2,2.2-1.5c0.9-0.3,1.8-0.3,2.7-0.2c1,0.2,1.8,0.5,2.5,1.1c0.7,0.6,1.2,1.3,1.5,2.1c0.3,0.9,0.4,1.8,0.2,2.8
			s-0.6,1.9-1.2,2.6c-0.6,0.7-1.3,1.2-2.2,1.5c-0.9,0.3-1.8,0.3-2.7,0.2C178.2,49.1,177.3,48.8,176.6,48.2z M180.8,47
			c0.4-0.2,0.8-0.4,1.1-0.8c0.3-0.4,0.5-0.9,0.6-1.5c0.2-0.9,0-1.7-0.4-2.3c-0.4-0.6-1-1-1.7-1.1c-0.7-0.1-1.4,0-1.9,0.4
			c-0.6,0.4-0.9,1.1-1.1,2c-0.2,0.9-0.1,1.7,0.3,2.3c0.4,0.6,0.9,0.9,1.6,1.1C179.9,47.2,180.4,47.2,180.8,47z"/>
		<path class="st1" d="M187.6,50.6c-0.6-0.7-1-1.4-1.1-2.3c-0.2-0.9-0.1-1.8,0.3-2.8c0.3-1,0.9-1.8,1.5-2.4c0.7-0.6,1.5-1,2.4-1.1
			c0.9-0.1,1.8-0.1,2.7,0.3c0.9,0.3,1.7,0.8,2.3,1.5c0.6,0.7,1,1.4,1.2,2.3c0.2,0.9,0.1,1.8-0.2,2.8c-0.3,1-0.9,1.8-1.6,2.3
			c-0.7,0.6-1.5,1-2.4,1.1c-0.9,0.1-1.8,0.1-2.7-0.3C188.9,51.8,188.2,51.3,187.6,50.6z M191.9,50.1c0.5-0.1,0.9-0.3,1.2-0.6
			c0.4-0.3,0.7-0.8,0.9-1.4c0.3-0.9,0.3-1.7,0-2.3c-0.3-0.7-0.8-1.1-1.5-1.3c-0.7-0.2-1.3-0.2-2,0.1c-0.6,0.3-1.1,0.9-1.4,1.8
			c-0.3,0.9-0.3,1.7,0,2.3c0.3,0.6,0.8,1.1,1.5,1.3C191,50.2,191.5,50.2,191.9,50.1z"/>
		<path class="st1" d="M207.9,50.3c0.3,1,0.1,2.1-0.5,3.3l-2.8,5.2l-2.2-1.2l2.6-4.9c0.4-0.7,0.5-1.3,0.3-1.9
			c-0.1-0.6-0.5-1-1.1-1.3c-0.6-0.3-1.2-0.4-1.8-0.2c-0.6,0.2-1,0.6-1.4,1.3l-2.6,4.9l-2.2-1.2l4.8-8.9l2.2,1.2l-0.6,1.1
			c0.5-0.2,1-0.3,1.6-0.3c0.6,0,1.1,0.2,1.7,0.5C207,48.5,207.6,49.3,207.9,50.3z"/>
		<path class="st1" d="M214.7,56.4c0.8-0.3,1.6-0.4,2.4-0.3c0.8,0.1,1.5,0.5,2.2,1.1c0.6,0.5,1,1,1.2,1.6c0.2,0.6,0.3,1.2,0.3,1.8
			l0.9-1.1l1.9,1.7l-6.6,7.6l-1.9-1.7l1-1.1c-0.6,0.1-1.2,0.1-1.8,0c-0.6-0.1-1.2-0.5-1.8-1c-0.6-0.6-1.1-1.2-1.3-2
			c-0.2-0.8-0.2-1.6,0-2.5s0.7-1.7,1.3-2.5C213.1,57.3,213.9,56.7,214.7,56.4z M219.2,61.8c0.1-0.5,0.1-1-0.1-1.4
			c-0.2-0.4-0.4-0.8-0.8-1.1c-0.4-0.3-0.8-0.5-1.2-0.6c-0.5-0.1-0.9,0-1.4,0.1c-0.5,0.2-0.9,0.5-1.3,0.9c-0.4,0.5-0.7,0.9-0.8,1.4
			c-0.1,0.5-0.1,1,0,1.4c0.1,0.4,0.4,0.8,0.7,1.1c0.4,0.3,0.8,0.5,1.2,0.6c0.5,0.1,0.9,0.1,1.4-0.1c0.5-0.2,0.9-0.5,1.3-1
			C218.8,62.8,219.1,62.3,219.2,61.8z"/>
		<path class="st1" d="M229.7,68.6c0.1,0.6,0.1,1.2,0,1.8l1.1-0.9l1.6,2l-7.8,6.4c-0.7,0.6-1.5,1-2.3,1.1c-0.8,0.2-1.6,0.1-2.4-0.2
			c-0.8-0.3-1.5-0.9-2.2-1.7c-0.9-1.1-1.4-2.2-1.5-3.4c-0.1-1.1,0.3-2.1,1.1-2.9l1.6,2c-0.3,0.4-0.4,0.8-0.3,1.4
			c0.1,0.5,0.3,1,0.7,1.5c0.5,0.6,1,0.9,1.7,1c0.6,0.1,1.3-0.2,2-0.7l1.2-1c-0.6,0-1.2-0.1-1.8-0.3c-0.6-0.2-1.1-0.7-1.6-1.2
			c-0.5-0.7-0.9-1.4-1-2.2c-0.1-0.8,0-1.6,0.4-2.5c0.4-0.8,0.9-1.5,1.7-2.2c0.8-0.6,1.6-1.1,2.5-1.2c0.9-0.2,1.7-0.1,2.5,0.1
			c0.8,0.3,1.4,0.7,2,1.4C229.3,67.3,229.6,67.9,229.7,68.6z M227.9,71.3c0.2-0.5,0.2-0.9,0.2-1.4c-0.1-0.5-0.3-0.9-0.6-1.2
			c-0.3-0.4-0.7-0.6-1.1-0.8c-0.4-0.2-0.9-0.2-1.4-0.1c-0.5,0.1-1,0.3-1.5,0.7c-0.5,0.4-0.8,0.8-1,1.3c-0.2,0.5-0.3,1-0.2,1.4
			c0.1,0.5,0.2,0.9,0.5,1.2c0.3,0.4,0.7,0.6,1.1,0.8c0.4,0.2,0.9,0.2,1.4,0.1c0.5-0.1,1-0.3,1.5-0.7
			C227.4,72.2,227.7,71.8,227.9,71.3z"/>
		<path class="st1" d="M234.1,85.4l-3.7-6.4c-0.6,0.4-1,0.9-1.1,1.5c-0.1,0.6,0,1.2,0.3,1.7c0.5,0.8,1.2,1.2,2.1,1.1l1.4,2.4
			c-1,0.2-2,0.2-2.9-0.2c-1-0.4-1.7-1.1-2.3-2.2c-0.5-0.8-0.7-1.7-0.7-2.6c0-0.9,0.2-1.7,0.7-2.5c0.5-0.8,1.1-1.4,2-1.9
			c0.9-0.5,1.8-0.8,2.7-0.8c0.9,0,1.7,0.2,2.5,0.6c0.7,0.4,1.4,1.1,1.9,2c0.5,0.8,0.7,1.7,0.8,2.5c0,0.9-0.2,1.7-0.6,2.4
			c-0.4,0.7-1.1,1.4-1.9,1.9C234.7,85.1,234.4,85.3,234.1,85.4z M234.3,82.3c0.6-0.3,0.9-0.8,1-1.4c0.1-0.6,0-1.2-0.3-1.8
			c-0.3-0.5-0.7-0.9-1.3-1.1c-0.5-0.2-1.1-0.1-1.8,0.1L234.3,82.3z"/>
		<path class="st1" d="M242.6,93.5c-0.4,1-1.3,1.7-2.6,2.2l-5.5,2.1l-0.9-2.4l5.2-2c0.7-0.3,1.2-0.7,1.5-1.2c0.3-0.5,0.3-1.1,0-1.8
			c-0.3-0.7-0.7-1.1-1.2-1.3c-0.5-0.2-1.2-0.2-1.9,0.1l-5.2,2l-0.9-2.4l9.4-3.6l0.9,2.4l-1.2,0.5c0.5,0.2,1,0.4,1.4,0.8
			c0.4,0.4,0.7,0.9,1,1.5C243,91.5,243,92.5,242.6,93.5z"/>
		<path class="st1" d="M242.6,98c0.9,0.2,1.6,0.7,2.1,1.3c0.6,0.6,1,1.4,1.2,2.4c0.3,1.2,0.2,2.3-0.3,3.2c-0.4,0.9-1.2,1.7-2.2,2.2
			l-0.6-2.7c0.4-0.2,0.7-0.5,0.8-0.9c0.2-0.4,0.2-0.8,0.1-1.3c-0.2-0.7-0.5-1.2-1.1-1.5c-0.6-0.3-1.4-0.4-2.3-0.1
			c-0.9,0.2-1.6,0.6-2,1.1c-0.4,0.5-0.6,1.1-0.4,1.9c0.2,1,0.8,1.6,1.8,1.7l0.6,2.7c-1.1,0-2.1-0.4-2.9-1.1
			c-0.8-0.7-1.3-1.6-1.6-2.8c-0.2-0.9-0.2-1.8,0.1-2.7c0.3-0.8,0.7-1.5,1.4-2.1c0.7-0.6,1.5-1,2.5-1.2
			C240.8,97.8,241.8,97.8,242.6,98z"/>
		<path class="st1" d="M247.8,118.9l-15.2-5.3l-0.2-2.7l5.1,1.8l9.5-4.7l0.2,2.8l-6.8,3.1l7.2,2.2L247.8,118.9z"/>
		<path class="st1" d="M246.5,130c0.2,0.6,0.3,1.3,0.2,2c-0.1,0.8-0.5,1.6-1,2.2c-0.5,0.6-1.2,1.1-2,1.4c-0.8,0.3-1.8,0.3-2.8,0.2
			c-1-0.2-1.9-0.5-2.6-1c-0.7-0.5-1.2-1.2-1.6-1.9c-0.3-0.8-0.4-1.6-0.3-2.4c0.1-0.7,0.4-1.3,0.7-1.9c0.4-0.5,0.8-0.9,1.3-1.2
			l-6.2-1l0.4-2.5l14.7,2.3l-0.4,2.5l-1.4-0.2C246,128.9,246.3,129.4,246.5,130z M242.9,133.1c0.5-0.2,0.9-0.4,1.1-0.8
			c0.3-0.4,0.5-0.8,0.5-1.2c0.1-0.5,0-0.9-0.2-1.3c-0.2-0.4-0.5-0.8-0.9-1.1c-0.4-0.3-0.9-0.5-1.5-0.6c-0.6-0.1-1.1,0-1.6,0.1
			c-0.5,0.2-0.9,0.4-1.2,0.8c-0.3,0.4-0.5,0.8-0.5,1.2c-0.1,0.5,0,0.9,0.2,1.4c0.2,0.4,0.5,0.8,0.9,1.1c0.4,0.3,0.9,0.5,1.5,0.6
			C241.9,133.3,242.4,133.2,242.9,133.1z"/>
		<path class="st1" d="M235.3,138.2c0.6-0.6,1.4-1,2.3-1.2c0.9-0.2,1.8-0.1,2.8,0.2c1,0.3,1.8,0.8,2.4,1.5c0.6,0.7,1,1.5,1.2,2.3
			c0.2,0.9,0.1,1.8-0.2,2.7c-0.3,0.9-0.8,1.7-1.4,2.3c-0.7,0.6-1.4,1-2.3,1.2c-0.9,0.2-1.8,0.1-2.8-0.2c-1-0.3-1.8-0.8-2.4-1.5
			c-0.6-0.7-1-1.5-1.1-2.4c-0.2-0.9-0.1-1.8,0.2-2.7C234.2,139.6,234.7,138.8,235.3,138.2z M235.9,142.6c0.1,0.5,0.3,0.9,0.7,1.2
			c0.3,0.4,0.8,0.7,1.4,0.9c0.9,0.3,1.7,0.3,2.3,0c0.6-0.3,1.1-0.8,1.3-1.5c0.2-0.7,0.2-1.3-0.2-2c-0.3-0.6-1-1.1-1.9-1.4
			c-0.9-0.3-1.7-0.3-2.3,0c-0.6,0.3-1.1,0.8-1.3,1.5C235.9,141.7,235.8,142.1,235.9,142.6z"/>
		<path class="st1" d="M238.9,154.5c0,0.6-0.1,1.2-0.4,1.8l-2.4-1.1l0.3-0.6c0.3-0.7,0.4-1.3,0.3-1.9c-0.2-0.5-0.7-1-1.5-1.4
			l-4.5-2.1l1.1-2.3l9.1,4.3l-1.1,2.3l-1.4-0.7C238.6,153.3,238.8,153.9,238.9,154.5z"/>
		<path class="st1" d="M233.9,159.8l-4.2-2.5c-0.3-0.2-0.5-0.2-0.8-0.2c-0.2,0.1-0.4,0.3-0.6,0.6l-0.6,1l-1.8-1.1l0.8-1.4
			c1.1-1.8,2.5-2.2,4.3-1.1l4.2,2.5l0.6-1l1.8,1.1l-0.6,1l2.1,1.3l-1.3,2.2l-2.1-1.3l-1.2,1.9l-1.8-1.1L233.9,159.8z"/>
		<path class="st1" d="M228.7,167.4l1-1.4l-6.4-4.7l1.5-2.1l6.4,4.7l0.7-0.9l1.7,1.2l-0.7,0.9l0.4,0.3c1,0.7,1.5,1.5,1.6,2.5
			c0.1,0.9-0.4,1.9-1.2,3l-1.7-1.3c0.4-0.5,0.5-0.9,0.5-1.2c0-0.3-0.3-0.7-0.7-1l-0.3-0.2l-1,1.4L228.7,167.4z"/>
		<path class="st1" d="M220.6,165.4c0.8-0.3,1.7-0.3,2.6-0.1c0.9,0.2,1.7,0.7,2.4,1.4c0.8,0.7,1.3,1.5,1.5,2.4
			c0.3,0.9,0.3,1.7,0.1,2.6c-0.2,0.9-0.7,1.7-1.3,2.4c-0.7,0.7-1.4,1.2-2.3,1.5c-0.9,0.3-1.7,0.3-2.6,0.1c-0.9-0.2-1.7-0.7-2.5-1.4
			c-0.7-0.7-1.3-1.5-1.5-2.4c-0.3-0.9-0.3-1.8,0-2.6c0.2-0.9,0.7-1.7,1.3-2.4C219,166.2,219.8,165.7,220.6,165.4z M219.3,169.6
			c-0.1,0.4-0.1,0.9,0.1,1.4c0.2,0.5,0.5,0.9,0.9,1.4c0.7,0.7,1.4,1,2.1,1c0.7,0,1.3-0.3,1.8-0.8c0.5-0.5,0.7-1.1,0.7-1.9
			c0-0.7-0.4-1.4-1.1-2c-0.7-0.7-1.4-1-2.1-1c-0.7,0-1.3,0.3-1.8,0.8C219.6,168.8,219.4,169.2,219.3,169.6z"/>
		<path class="st1" d="M220.4,183.6l-8.7-10.2l1.9-1.6l8.7,10.2L220.4,183.6z"/>
		<path class="st1" d="M213.8,184.4l-6-8.1l2-1.5l6,8.1L213.8,184.4z M216.7,184.3c0.4,0.1,0.7,0.2,1,0.6c0.3,0.3,0.3,0.7,0.3,1.1
			c-0.1,0.4-0.3,0.7-0.6,1c-0.4,0.3-0.7,0.4-1.2,0.3c-0.4-0.1-0.7-0.2-1-0.6c-0.3-0.3-0.3-0.7-0.3-1.1c0.1-0.4,0.3-0.7,0.6-1
			C215.9,184.4,216.3,184.3,216.7,184.3z"/>
		<path class="st1" d="M204.7,179c0.9,0,1.7,0.2,2.5,0.7c0.8,0.5,1.4,1.1,1.9,2c0.5,0.9,0.8,1.8,0.8,2.7c0,0.9-0.2,1.7-0.7,2.5
			c-0.5,0.8-1.1,1.4-2,1.9c-0.8,0.5-1.7,0.7-2.6,0.8c-0.9,0-1.7-0.2-2.5-0.7c-0.8-0.5-1.4-1.1-1.9-2s-0.8-1.8-0.8-2.7
			c0-0.9,0.3-1.8,0.7-2.5c0.5-0.8,1.1-1.4,2-1.9C203,179.3,203.9,179,204.7,179z M202.3,182.6c-0.2,0.4-0.4,0.8-0.3,1.4
			c0,0.5,0.2,1,0.5,1.6c0.5,0.8,1.1,1.3,1.8,1.5c0.7,0.2,1.4,0.1,2-0.2c0.6-0.4,1-0.9,1.2-1.6c0.2-0.7,0-1.5-0.5-2.3
			c-0.5-0.8-1.1-1.3-1.7-1.6c-0.7-0.2-1.3-0.1-2,0.2C202.9,181.9,202.5,182.2,202.3,182.6z"/>
		<path class="st1" d="M187.2,195.9c-0.9-0.5-1.6-1.4-2-2.7l-1.8-5.6l2.4-0.8l1.7,5.3c0.2,0.8,0.6,1.3,1.1,1.6
			c0.5,0.3,1.1,0.3,1.8,0.1c0.7-0.2,1.1-0.6,1.4-1.1c0.3-0.5,0.3-1.2,0-1.9l-1.7-5.3l2.4-0.8l3,9.6l-2.4,0.8l-0.4-1.2
			c-0.2,0.5-0.5,1-0.9,1.4c-0.4,0.4-0.9,0.7-1.5,0.9C189.2,196.5,188.1,196.4,187.2,195.9z"/>
		<path class="st1" d="M172.9,193.6l7.3-1.1c-0.2-0.7-0.5-1.2-1-1.6c-0.5-0.3-1.1-0.5-1.7-0.4c-0.9,0.1-1.5,0.6-1.8,1.5l-2.7,0.4
			c0.1-1,0.6-1.9,1.3-2.6c0.7-0.7,1.7-1.2,2.9-1.4c1-0.1,1.9-0.1,2.7,0.3c0.8,0.3,1.5,0.8,2,1.5c0.5,0.7,0.9,1.6,1,2.6
			c0.2,1,0.1,2-0.2,2.8c-0.3,0.8-0.8,1.5-1.5,2.1c-0.7,0.5-1.5,0.9-2.5,1c-0.9,0.1-1.8,0.1-2.6-0.2c-0.8-0.3-1.5-0.8-2-1.5
			c-0.5-0.7-0.9-1.5-1-2.5C172.9,194.2,172.9,193.9,172.9,193.6z M175.7,194.9c0.1,0.6,0.4,1.1,0.9,1.4s1.1,0.4,1.8,0.3
			c0.6-0.1,1.1-0.4,1.5-0.8c0.4-0.4,0.6-1,0.5-1.7L175.7,194.9z"/>
		<path class="st1" d="M156.6,199.2l3.3-10l2.7,0.1l1.6,7.1l2.1-7l2.8,0.1l2.6,10.2l-2.6-0.1l-1.5-7.7l-2.2,7.6l-2.7-0.1l-1.6-7.7
			l-2,7.6L156.6,199.2z"/>
		<path class="st1" d="M145.6,196.3c-0.6,0.1-1.3,0.1-2-0.1c-0.8-0.2-1.5-0.7-2.1-1.3c-0.5-0.6-0.9-1.3-1.1-2.2
			c-0.2-0.9-0.1-1.8,0.2-2.8c0.3-1,0.7-1.8,1.3-2.5c0.6-0.6,1.3-1.1,2.1-1.3c0.8-0.2,1.6-0.2,2.4,0c0.7,0.2,1.3,0.5,1.8,1
			c0.5,0.4,0.8,0.9,1,1.5l0.4-1.4l2.4,0.7l-3.7,12.9l-2.4-0.7l1.3-4.7C146.8,195.9,146.2,196.2,145.6,196.3z M143,192.3
			c0.1,0.5,0.3,0.9,0.7,1.2c0.3,0.3,0.7,0.6,1.2,0.7c0.4,0.1,0.9,0.1,1.3,0c0.5-0.1,0.9-0.4,1.2-0.7c0.4-0.4,0.6-0.8,0.8-1.4
			c0.2-0.6,0.2-1.1,0.1-1.6c-0.1-0.5-0.3-0.9-0.7-1.3c-0.3-0.3-0.7-0.6-1.1-0.7c-0.5-0.1-0.9-0.1-1.4,0c-0.5,0.1-0.9,0.4-1.2,0.7
			c-0.4,0.4-0.6,0.8-0.8,1.4C142.9,191.3,142.9,191.8,143,192.3z"/>
		<path class="st1" d="M133.2,191.8c-0.6,0.1-1.2-0.1-1.8-0.3l1.1-2.4l0.6,0.3c0.7,0.3,1.4,0.4,1.9,0.2c0.5-0.2,1-0.7,1.4-1.5
			l2.1-4.6l2.3,1.1l-4.2,9.2l-2.3-1.1l0.6-1.4C134.4,191.5,133.8,191.7,133.2,191.8z"/>
		<path class="st1" d="M130.3,188.3c-0.8,0.5-1.5,0.7-2.4,0.7c-0.8,0-1.6-0.2-2.3-0.7c-0.6-0.4-1.1-0.9-1.4-1.4
			c-0.3-0.6-0.5-1.1-0.6-1.7l-0.7,1.2l-2.2-1.3l5.2-8.6l2.2,1.3l-0.8,1.3c0.5-0.2,1.1-0.3,1.8-0.3c0.7,0,1.3,0.2,1.9,0.6
			c0.7,0.4,1.3,1,1.6,1.8c0.4,0.7,0.5,1.5,0.5,2.4c-0.1,0.9-0.4,1.8-0.9,2.7C131.7,187.2,131.1,187.9,130.3,188.3z M125,183.7
			c0,0.5,0.1,1,0.3,1.4c0.2,0.4,0.5,0.7,0.9,1c0.4,0.2,0.8,0.4,1.3,0.4c0.5,0,0.9-0.1,1.4-0.4c0.4-0.2,0.8-0.6,1.1-1.1
			c0.3-0.5,0.5-1,0.5-1.6c0-0.5-0.1-1-0.3-1.4c-0.2-0.4-0.5-0.7-0.9-1c-0.4-0.2-0.8-0.4-1.3-0.4c-0.5,0-0.9,0.1-1.4,0.4
			c-0.4,0.3-0.8,0.6-1.1,1.2C125.2,182.7,125,183.2,125,183.7z"/>
		<path class="st1" d="M111.9,176.7c-0.1-1.1,0.3-2.1,1.2-3.1l3.9-4.5l1.9,1.7l-3.6,4.2c-0.5,0.6-0.8,1.2-0.7,1.8
			c0,0.6,0.3,1.1,0.8,1.6c0.5,0.5,1.1,0.7,1.7,0.6c0.6-0.1,1.1-0.4,1.7-1l3.6-4.2l1.9,1.7l-6.6,7.6l-1.9-1.7l0.8-0.9
			c-0.5,0.1-1.1,0.1-1.7-0.1c-0.6-0.2-1.1-0.4-1.6-0.8C112.5,178.7,112,177.8,111.9,176.7z"/>
		<path class="st1" d="M109.7,172.7c-0.9,0.2-1.7,0.2-2.5-0.1c-0.8-0.3-1.4-0.7-2-1.4c-0.4-0.5-0.7-1.1-0.9-1.7
			c-0.2-0.6-0.2-1.2,0-1.8l-3.7,3.1l-1.6-2l10.3-8.6l1.6,2l-1.1,1c0.6-0.1,1.2,0,1.8,0.3c0.6,0.2,1.1,0.7,1.6,1.2
			c0.5,0.7,0.9,1.4,1,2.2c0.1,0.8,0,1.6-0.4,2.5c-0.3,0.8-0.9,1.6-1.7,2.2C111.4,172.1,110.6,172.5,109.7,172.7z M106.1,166.6
			c-0.2,0.5-0.2,0.9-0.2,1.4c0.1,0.5,0.3,0.9,0.6,1.2c0.3,0.4,0.7,0.6,1.1,0.8c0.4,0.2,0.9,0.2,1.4,0.1c0.5-0.1,1-0.3,1.4-0.7
			c0.5-0.4,0.8-0.8,1-1.3c0.2-0.5,0.2-1,0.2-1.4c-0.1-0.5-0.3-0.9-0.5-1.2c-0.3-0.4-0.7-0.6-1.1-0.8c-0.4-0.2-0.9-0.2-1.4-0.1
			s-1,0.3-1.5,0.7C106.7,165.7,106.3,166.2,106.1,166.6z"/>
		<path class="st1" d="M95.5,155.9c-0.5-0.4-1-0.9-1.3-1.5c-0.4-0.8-0.5-1.6-0.5-2.4c0.1-0.8,0.4-1.6,0.9-2.3
			c0.5-0.7,1.2-1.3,2.2-1.8c0.9-0.5,1.8-0.7,2.7-0.7c0.9,0,1.7,0.2,2.4,0.6c0.7,0.4,1.2,1,1.6,1.8c0.3,0.7,0.5,1.3,0.5,1.9
			c0,0.6-0.2,1.2-0.4,1.7l5.6-2.8l1.1,2.3L97,159.5l-1.1-2.3l1.3-0.7C96.6,156.5,96.1,156.3,95.5,155.9z M96.7,151.3
			c-0.3,0.4-0.4,0.9-0.5,1.3c0,0.5,0.1,0.9,0.3,1.3c0.2,0.4,0.5,0.7,0.9,1c0.4,0.3,0.8,0.4,1.4,0.4c0.5,0,1-0.1,1.6-0.4
			c0.5-0.3,1-0.6,1.2-1c0.3-0.4,0.4-0.9,0.5-1.3c0-0.5-0.1-0.9-0.3-1.3c-0.2-0.4-0.5-0.8-0.9-1c-0.4-0.3-0.9-0.4-1.4-0.4
			c-0.5,0-1,0.1-1.6,0.4C97.4,150.5,97,150.9,96.7,151.3z"/>
		<path class="st1" d="M90.4,143.8c-0.5-0.4-0.8-0.9-1-1.6l2.5-0.9l0.2,0.6c0.3,0.8,0.6,1.3,1.1,1.5c0.5,0.3,1.2,0.2,2.1-0.1
			l4.7-1.6l0.8,2.4l-9.5,3.3l-0.8-2.4l1.5-0.5C91.4,144.5,90.9,144.2,90.4,143.8z"/>
		<path class="st1" d="M97.8,135.9c-0.3,0.8-0.7,1.6-1.4,2.2c-0.7,0.6-1.5,1-2.5,1.2c-1,0.2-1.9,0.2-2.8-0.1
			c-0.9-0.3-1.6-0.8-2.2-1.4c-0.6-0.7-1-1.5-1.2-2.4c-0.2-0.9-0.2-1.9,0.1-2.7c0.3-0.9,0.7-1.6,1.4-2.2c0.7-0.6,1.5-1,2.5-1.2
			c1-0.2,1.9-0.2,2.8,0.1c0.9,0.3,1.6,0.8,2.2,1.5c0.6,0.7,1,1.5,1.2,2.5C98.1,134.2,98,135.1,97.8,135.9z M95.1,132.5
			c-0.3-0.3-0.7-0.6-1.2-0.7c-0.5-0.1-1-0.2-1.7,0c-0.9,0.2-1.6,0.6-2,1.2c-0.4,0.6-0.5,1.3-0.4,2c0.1,0.7,0.5,1.3,1.1,1.6
			c0.6,0.4,1.4,0.5,2.3,0.3c0.9-0.2,1.6-0.6,2-1.2c0.4-0.6,0.5-1.2,0.4-1.9C95.6,133.2,95.4,132.8,95.1,132.5z"/>
		<path class="st1" d="M88.7,127.1c-0.8-0.4-1.4-0.9-1.9-1.6c-0.5-0.7-0.7-1.5-0.7-2.3c0-0.7,0.1-1.3,0.3-1.9
			c0.3-0.6,0.6-1.1,1.1-1.5l-4.8,0.2l-0.1-2.6l13.4-0.6l0.1,2.6l-1.5,0.1c0.5,0.3,0.9,0.7,1.3,1.3c0.3,0.6,0.5,1.2,0.5,2
			c0,0.8-0.1,1.6-0.5,2.4c-0.4,0.7-1,1.3-1.8,1.7c-0.8,0.4-1.7,0.7-2.7,0.7C90.4,127.7,89.5,127.5,88.7,127.1z M89.5,120.1
			c-0.4,0.3-0.8,0.6-1,1c-0.2,0.4-0.3,0.9-0.3,1.3c0,0.5,0.2,0.9,0.4,1.3c0.2,0.4,0.6,0.7,1.1,0.9c0.5,0.2,1,0.3,1.6,0.3
			c0.6,0,1.1-0.2,1.6-0.4c0.4-0.3,0.8-0.6,1-1c0.2-0.4,0.3-0.9,0.3-1.3c0-0.5-0.2-0.9-0.4-1.3c-0.3-0.4-0.6-0.7-1.1-0.9
			c-0.5-0.2-1-0.3-1.6-0.3C90.5,119.7,90,119.9,89.5,120.1z"/>
		<path class="st1" d="M87.3,104.3l10,1.2L97,108l-1.3-0.2c0.4,0.4,0.7,0.8,0.9,1.4c0.2,0.6,0.2,1.1,0.2,1.7c-0.1,0.8-0.3,1.5-0.7,2
			c-0.4,0.6-0.9,1-1.6,1.2c-0.7,0.3-1.5,0.3-2.4,0.2l-5.9-0.7l0.3-2.5l5.5,0.7c0.8,0.1,1.4,0,1.9-0.4c0.5-0.3,0.8-0.9,0.8-1.5
			c0.1-0.7-0.1-1.3-0.4-1.7c-0.4-0.4-1-0.7-1.8-0.8l-5.5-0.7L87.3,104.3z"/>
		<path class="st1" d="M90.3,101.3c-0.6-0.6-1.1-1.4-1.3-2.2c-0.2-0.8-0.2-1.7,0.1-2.7c0.3-1.2,0.9-2.1,1.7-2.7
			c0.8-0.6,1.8-0.9,3-0.9l-0.8,2.6c-0.5,0-0.9,0.2-1.2,0.4c-0.3,0.3-0.6,0.6-0.7,1.1C91,97.8,91,98.4,91.4,99c0.4,0.6,1,1,2,1.2
			c0.9,0.3,1.7,0.3,2.3,0c0.6-0.3,1-0.7,1.2-1.4c0.3-1,0-1.8-0.8-2.3l0.8-2.6c1,0.6,1.7,1.3,2,2.3c0.4,1,0.4,2,0.1,3.2
			c-0.3,0.9-0.7,1.7-1.3,2.3c-0.6,0.6-1.4,1-2.2,1.2c-0.9,0.2-1.8,0.1-2.8-0.1C91.7,102.4,90.9,102,90.3,101.3z"/>
		<path class="st1" d="M94.7,87.6l4.5,1.9c0.3,0.1,0.6,0.1,0.8,0.1c0.2-0.1,0.4-0.3,0.5-0.7l0.5-1.1l2,0.8l-0.6,1.5
			c-0.8,2-2.2,2.6-4.1,1.8l-4.5-1.9L93.2,91l-1.9-0.8l0.5-1.1l-2.3-1l1-2.4l2.3,1l0.9-2.1l1.9,0.8L94.7,87.6z"/>
	</g>
	<g class="st0">
		<path class="st1" d="M127.9,96.5c-0.2-0.4-0.3-0.9-0.3-1.4c0-0.5,0.2-1,0.5-1.4c0.4-0.6,0.9-1,1.4-1.2c0.5-0.2,1.1-0.2,1.7,0
			l-0.9,1.3c-0.3-0.1-0.5-0.1-0.7,0c-0.2,0.1-0.4,0.2-0.6,0.5c-0.2,0.3-0.3,0.7-0.2,1.1c0.1,0.4,0.4,0.7,0.9,1
			c0.5,0.3,0.9,0.4,1.2,0.4c0.4,0,0.7-0.2,0.9-0.6c0.3-0.5,0.3-0.9,0-1.4l0.9-1.3c0.4,0.5,0.7,1,0.7,1.6c0,0.6-0.1,1.2-0.5,1.8
			c-0.3,0.5-0.7,0.8-1.1,1c-0.4,0.2-0.9,0.3-1.4,0.3c-0.5,0-1-0.2-1.5-0.6C128.5,97.4,128.1,97,127.9,96.5z"/>
		<path class="st1" d="M135.4,93.1c-0.5,0.2-1,0.2-1.5,0.1c-0.5-0.1-1-0.4-1.4-0.8c-0.4-0.4-0.7-0.8-0.9-1.3c-0.2-0.5-0.2-1-0.1-1.5
			c0.1-0.5,0.4-0.9,0.7-1.3c0.4-0.4,0.8-0.7,1.3-0.9c0.5-0.2,1-0.2,1.5-0.1c0.5,0.1,1,0.4,1.4,0.8c0.4,0.4,0.7,0.8,0.9,1.3
			c0.2,0.5,0.2,1,0,1.5c-0.1,0.5-0.4,0.9-0.7,1.4C136.3,92.6,135.9,92.9,135.4,93.1z M136.1,90.7c0.1-0.3,0-0.5-0.1-0.8
			c-0.1-0.3-0.3-0.5-0.5-0.8c-0.4-0.4-0.8-0.5-1.2-0.5c-0.4,0-0.7,0.2-1,0.5c-0.3,0.3-0.4,0.7-0.4,1.1c0,0.4,0.2,0.8,0.6,1.1
			c0.4,0.4,0.8,0.5,1.2,0.5c0.4,0,0.7-0.2,1-0.5C135.9,91.2,136,91,136.1,90.7z"/>
		<path class="st1" d="M143.1,80.1c0.6,0.1,1.1,0.5,1.6,1.1l1.9,2.7l-1.2,0.8l-1.8-2.5c-0.3-0.4-0.6-0.6-0.9-0.6
			c-0.3-0.1-0.6,0-1,0.3c-0.3,0.2-0.5,0.5-0.5,0.8c0,0.3,0.1,0.7,0.3,1l1.8,2.5l-1.2,0.8l-1.8-2.5c-0.3-0.4-0.6-0.6-0.9-0.6
			c-0.3-0.1-0.6,0-1,0.3c-0.3,0.2-0.5,0.5-0.6,0.8c0,0.3,0.1,0.7,0.3,1l1.8,2.5l-1.2,0.8l-3.3-4.6l1.2-0.8l0.4,0.6
			c0-0.3,0.1-0.6,0.2-0.9c0.2-0.3,0.4-0.5,0.7-0.7c0.4-0.3,0.7-0.4,1.1-0.5c0.4-0.1,0.8,0,1.1,0.2c0-0.4,0-0.7,0.2-1.1
			c0.2-0.4,0.4-0.7,0.8-0.9C141.9,80.2,142.5,80,143.1,80.1z"/>
		<path class="st1" d="M144.9,77.6c-0.2-0.1-0.4-0.2-0.5-0.4c-0.1-0.2-0.1-0.4,0-0.6c0.1-0.2,0.2-0.4,0.5-0.5s0.5-0.1,0.7-0.1
			c0.2,0.1,0.4,0.2,0.5,0.4c0.1,0.2,0.1,0.4,0,0.6c-0.1,0.2-0.2,0.4-0.5,0.5C145.4,77.7,145.1,77.7,144.9,77.6z M146.5,77.9L149,83
			l-1.3,0.6l-2.5-5.1L146.5,77.9z"/>
		<path class="st1" d="M152.9,75.9c0.5,0.3,0.9,0.8,1.2,1.5l1.1,3.1l-1.4,0.5l-1.1-3c-0.2-0.4-0.4-0.7-0.7-0.9c-0.3-0.2-0.6-0.2-1,0
			c-0.4,0.1-0.6,0.4-0.8,0.7c-0.1,0.3-0.1,0.7,0,1.1l1.1,3l-1.4,0.5l-1.9-5.3l1.4-0.5l0.2,0.7c0.1-0.3,0.3-0.6,0.5-0.8
			c0.2-0.2,0.5-0.4,0.9-0.5C151.8,75.7,152.3,75.7,152.9,75.9z"/>
		<path class="st1" d="M158.6,74.2c0.3,0.1,0.6,0.3,0.9,0.5l-0.1-0.8l1.4-0.3l1,5.6c0.1,0.5,0.1,1-0.1,1.4c-0.1,0.4-0.4,0.8-0.8,1.1
			c-0.4,0.3-0.9,0.5-1.4,0.6c-0.8,0.1-1.5,0.1-2.1-0.2c-0.6-0.3-1-0.7-1.1-1.4l1.4-0.3c0.1,0.2,0.3,0.4,0.6,0.5
			c0.3,0.1,0.6,0.1,0.9,0.1c0.4-0.1,0.7-0.3,0.9-0.5c0.2-0.3,0.3-0.7,0.2-1.2l-0.2-0.9c-0.1,0.3-0.3,0.6-0.6,0.8
			c-0.3,0.2-0.6,0.4-1,0.5c-0.5,0.1-0.9,0-1.4-0.1c-0.4-0.2-0.8-0.5-1.1-0.9c-0.3-0.4-0.5-0.9-0.6-1.5c-0.1-0.6-0.1-1.1,0.1-1.6
			c0.1-0.5,0.4-0.9,0.7-1.2c0.3-0.3,0.8-0.5,1.2-0.6C157.9,74.1,158.2,74.1,158.6,74.2z M159.5,75.9c-0.2-0.2-0.4-0.4-0.6-0.5
			c-0.3-0.1-0.5-0.1-0.8-0.1c-0.3,0-0.5,0.2-0.7,0.3c-0.2,0.2-0.3,0.4-0.4,0.7c-0.1,0.3-0.1,0.6,0,0.9c0.1,0.3,0.2,0.6,0.4,0.8
			c0.2,0.2,0.4,0.4,0.7,0.5c0.2,0.1,0.5,0.1,0.8,0.1c0.3,0,0.5-0.2,0.7-0.3c0.2-0.2,0.4-0.4,0.4-0.7c0.1-0.3,0.1-0.6,0-0.9
			C159.8,76.4,159.6,76.1,159.5,75.9z"/>
		<path class="st1" d="M166.2,78.9c-0.4-0.2-0.6-0.4-0.9-0.7c-0.2-0.3-0.3-0.6-0.3-1l1.4,0c0,0.2,0.1,0.4,0.3,0.6
			c0.2,0.1,0.4,0.2,0.7,0.2c0.3,0,0.5,0,0.6-0.1c0.2-0.1,0.2-0.2,0.2-0.4c0-0.2-0.1-0.3-0.3-0.4c-0.2-0.1-0.5-0.2-0.9-0.3
			c-0.4-0.1-0.8-0.2-1-0.3c-0.3-0.1-0.5-0.3-0.7-0.5c-0.2-0.2-0.3-0.5-0.3-0.9c0-0.3,0.1-0.6,0.3-0.9c0.2-0.3,0.5-0.5,0.8-0.6
			c0.3-0.1,0.7-0.2,1.2-0.2c0.7,0,1.2,0.2,1.6,0.6c0.4,0.4,0.6,0.8,0.6,1.4l-1.4,0c0-0.2-0.1-0.4-0.3-0.5c-0.2-0.1-0.4-0.2-0.7-0.2
			c-0.3,0-0.5,0-0.6,0.1c-0.1,0.1-0.2,0.2-0.2,0.4c0,0.2,0.1,0.3,0.3,0.4c0.2,0.1,0.5,0.2,0.9,0.3c0.4,0.1,0.7,0.2,1,0.3
			c0.3,0.1,0.5,0.3,0.7,0.5c0.2,0.2,0.3,0.5,0.3,0.9c0,0.3-0.1,0.6-0.3,0.9c-0.2,0.3-0.5,0.4-0.8,0.6c-0.3,0.1-0.7,0.2-1.2,0.2
			C167,79.2,166.5,79.1,166.2,78.9z"/>
		<path class="st1" d="M171.7,79.2c-0.4-0.3-0.7-0.7-0.8-1.2c-0.2-0.5-0.2-1-0.1-1.6c0.1-0.6,0.3-1.1,0.6-1.4
			c0.3-0.4,0.7-0.7,1.2-0.8c0.5-0.2,1-0.2,1.5-0.1c0.5,0.1,1,0.3,1.4,0.6c0.4,0.3,0.7,0.7,0.9,1.2c0.2,0.5,0.2,1,0.1,1.6
			c-0.1,0.6-0.3,1.1-0.7,1.4c-0.3,0.4-0.7,0.7-1.2,0.8c-0.5,0.2-1,0.2-1.5,0.1C172.5,79.7,172,79.5,171.7,79.2z M174,78.5
			c0.2-0.1,0.5-0.2,0.6-0.5c0.2-0.2,0.3-0.5,0.4-0.9c0.1-0.5,0-1-0.2-1.3c-0.2-0.3-0.5-0.5-0.9-0.6c-0.4-0.1-0.8,0-1.1,0.2
			c-0.3,0.2-0.5,0.6-0.6,1.2c-0.1,0.5,0,1,0.2,1.3c0.2,0.3,0.5,0.5,0.9,0.6C173.5,78.6,173.8,78.6,174,78.5z"/>
		<path class="st1" d="M177.8,80.6c-0.3-0.4-0.5-0.8-0.6-1.3c-0.1-0.5,0-1,0.2-1.6c0.2-0.5,0.5-1,0.9-1.3c0.4-0.3,0.8-0.5,1.3-0.6
			c0.5-0.1,1,0,1.5,0.1c0.5,0.2,0.9,0.5,1.3,0.8c0.3,0.4,0.6,0.8,0.7,1.3c0.1,0.5,0.1,1-0.1,1.6c-0.2,0.5-0.5,1-0.9,1.3
			c-0.4,0.3-0.8,0.5-1.3,0.6c-0.5,0.1-1,0-1.5-0.1C178.6,81.2,178.2,80.9,177.8,80.6z M180.3,80.3c0.3,0,0.5-0.2,0.7-0.4
			c0.2-0.2,0.4-0.5,0.5-0.8c0.2-0.5,0.2-0.9,0-1.3c-0.2-0.4-0.5-0.6-0.8-0.8c-0.4-0.1-0.8-0.1-1.1,0.1c-0.4,0.2-0.6,0.5-0.8,1
			c-0.2,0.5-0.2,0.9,0,1.3c0.2,0.4,0.4,0.6,0.8,0.7C179.8,80.3,180,80.3,180.3,80.3z"/>
		<path class="st1" d="M189.3,80.4c0.2,0.6,0.1,1.2-0.3,1.9l-1.6,2.9l-1.3-0.7l1.5-2.8c0.2-0.4,0.3-0.8,0.2-1.1
			c-0.1-0.3-0.3-0.6-0.6-0.8c-0.3-0.2-0.7-0.2-1-0.1c-0.3,0.1-0.6,0.4-0.8,0.8l-1.5,2.8l-1.3-0.7l2.7-5l1.3,0.7l-0.3,0.6
			c0.3-0.1,0.6-0.2,0.9-0.2c0.3,0,0.6,0.1,1,0.3C188.8,79.4,189.2,79.8,189.3,80.4z"/>
		<path class="st1" d="M193.2,83.8c0.5-0.2,0.9-0.2,1.4-0.2c0.5,0.1,0.9,0.3,1.2,0.6c0.3,0.3,0.5,0.6,0.7,0.9c0.1,0.3,0.2,0.7,0.2,1
			l0.5-0.6l1.1,1l-3.7,4.3l-1.1-1l0.5-0.6c-0.3,0.1-0.7,0.1-1,0c-0.4-0.1-0.7-0.3-1-0.5c-0.4-0.3-0.6-0.7-0.7-1.1
			c-0.1-0.4-0.1-0.9,0-1.4s0.4-1,0.8-1.4C192.3,84.3,192.7,84,193.2,83.8z M195.7,86.9c0.1-0.3,0-0.5,0-0.8
			c-0.1-0.3-0.2-0.5-0.4-0.6c-0.2-0.2-0.4-0.3-0.7-0.3c-0.3-0.1-0.5,0-0.8,0.1c-0.3,0.1-0.5,0.3-0.7,0.5c-0.2,0.3-0.4,0.5-0.4,0.8
			c-0.1,0.3-0.1,0.6,0,0.8c0.1,0.3,0.2,0.5,0.4,0.6c0.2,0.2,0.4,0.3,0.7,0.3c0.3,0.1,0.5,0,0.8-0.1c0.3-0.1,0.5-0.3,0.7-0.5
			S195.6,87.2,195.7,86.9z"/>
		<path class="st1" d="M201.6,90.7c0.1,0.4,0.1,0.7,0,1l0.6-0.5l0.9,1.1l-4.4,3.6c-0.4,0.3-0.8,0.5-1.3,0.6
			c-0.5,0.1-0.9,0.1-1.4-0.1c-0.5-0.2-0.9-0.5-1.3-1c-0.5-0.6-0.8-1.3-0.8-1.9c0-0.6,0.2-1.2,0.6-1.7l0.9,1.1
			c-0.2,0.2-0.2,0.5-0.2,0.8c0,0.3,0.2,0.6,0.4,0.8c0.3,0.3,0.6,0.5,0.9,0.5c0.4,0,0.7-0.1,1.1-0.4l0.7-0.6c-0.3,0-0.7,0-1-0.2
			c-0.3-0.1-0.6-0.4-0.9-0.7c-0.3-0.4-0.5-0.8-0.5-1.2c-0.1-0.5,0-0.9,0.2-1.4c0.2-0.5,0.5-0.9,1-1.2c0.4-0.4,0.9-0.6,1.4-0.7
			c0.5-0.1,0.9-0.1,1.4,0.1c0.4,0.2,0.8,0.4,1.1,0.8C201.4,90,201.6,90.3,201.6,90.7z M200.6,92.2c0.1-0.3,0.1-0.5,0.1-0.8
			c0-0.3-0.2-0.5-0.3-0.7c-0.2-0.2-0.4-0.4-0.6-0.4c-0.2-0.1-0.5-0.1-0.8-0.1c-0.3,0-0.6,0.2-0.8,0.4c-0.3,0.2-0.5,0.5-0.6,0.7
			c-0.1,0.3-0.1,0.5-0.1,0.8c0,0.3,0.1,0.5,0.3,0.7c0.2,0.2,0.4,0.4,0.6,0.5c0.2,0.1,0.5,0.1,0.8,0.1c0.3-0.1,0.6-0.2,0.8-0.4
			C200.3,92.8,200.5,92.5,200.6,92.2z"/>
		<path class="st1" d="M204.1,100.2l-2.1-3.6c-0.3,0.2-0.5,0.5-0.6,0.9c-0.1,0.3,0,0.7,0.2,1c0.3,0.5,0.7,0.7,1.2,0.6l0.8,1.3
			c-0.6,0.1-1.1,0.1-1.6-0.1c-0.5-0.2-1-0.6-1.3-1.2c-0.3-0.5-0.4-1-0.4-1.5c0-0.5,0.1-1,0.4-1.4c0.3-0.4,0.6-0.8,1.1-1.1
			c0.5-0.3,1-0.5,1.5-0.5c0.5,0,1,0.1,1.4,0.4c0.4,0.3,0.8,0.6,1.1,1.1c0.3,0.5,0.4,0.9,0.4,1.4c0,0.5-0.1,0.9-0.4,1.4
			s-0.6,0.8-1.1,1C204.4,100,204.3,100.1,204.1,100.2z M204.2,98.4c0.3-0.2,0.5-0.5,0.6-0.8c0.1-0.3,0-0.7-0.2-1
			c-0.2-0.3-0.4-0.5-0.7-0.6c-0.3-0.1-0.6-0.1-1,0.1L204.2,98.4z"/>
		<path class="st1" d="M208.9,104.8c-0.2,0.5-0.7,1-1.4,1.2l-3.1,1.2l-0.5-1.3l2.9-1.1c0.4-0.2,0.7-0.4,0.8-0.7c0.1-0.3,0.1-0.6,0-1
			c-0.1-0.4-0.4-0.6-0.7-0.7c-0.3-0.1-0.7-0.1-1.1,0.1l-2.9,1.1l-0.5-1.3l5.3-2l0.5,1.3l-0.7,0.3c0.3,0.1,0.6,0.2,0.8,0.5
			c0.2,0.2,0.4,0.5,0.6,0.8C209.1,103.6,209.1,104.2,208.9,104.8z"/>
		<path class="st1" d="M208.9,107.3c0.5,0.1,0.9,0.4,1.2,0.8c0.3,0.4,0.5,0.8,0.7,1.3c0.1,0.7,0.1,1.3-0.1,1.8
			c-0.2,0.5-0.7,0.9-1.3,1.2l-0.3-1.5c0.2-0.1,0.4-0.3,0.5-0.5c0.1-0.2,0.1-0.5,0.1-0.8c-0.1-0.4-0.3-0.7-0.6-0.9
			c-0.3-0.2-0.8-0.2-1.3-0.1c-0.5,0.1-0.9,0.3-1.2,0.6c-0.2,0.3-0.3,0.6-0.2,1c0.1,0.6,0.5,0.9,1,0.9l0.3,1.5
			c-0.6,0-1.2-0.2-1.6-0.6c-0.5-0.4-0.8-0.9-0.9-1.6c-0.1-0.5-0.1-1,0-1.5c0.1-0.5,0.4-0.9,0.8-1.2c0.4-0.3,0.9-0.6,1.4-0.7
			C207.9,107.2,208.4,107.2,208.9,107.3z"/>
		<path class="st1" d="M211.8,119.1l-8.6-3l-0.1-1.5l2.9,1l5.4-2.6l0.1,1.6l-3.9,1.7l4.1,1.2L211.8,119.1z"/>
		<path class="st1" d="M211.1,125.4c0.1,0.3,0.2,0.7,0.1,1.1c-0.1,0.5-0.3,0.9-0.6,1.2c-0.3,0.4-0.7,0.6-1.2,0.8
			c-0.5,0.2-1,0.2-1.6,0.1c-0.6-0.1-1.1-0.3-1.5-0.6c-0.4-0.3-0.7-0.7-0.9-1.1c-0.2-0.4-0.2-0.9-0.2-1.4c0.1-0.4,0.2-0.8,0.4-1.1
			c0.2-0.3,0.5-0.5,0.8-0.7l-3.5-0.5l0.2-1.4l8.3,1.3l-0.2,1.4l-0.8-0.1C210.8,124.7,211,125,211.1,125.4z M209.1,127.1
			c0.3-0.1,0.5-0.3,0.6-0.5c0.2-0.2,0.3-0.4,0.3-0.7c0-0.3,0-0.5-0.1-0.8c-0.1-0.2-0.3-0.5-0.5-0.6c-0.2-0.2-0.5-0.3-0.8-0.3
			c-0.3-0.1-0.6,0-0.9,0.1c-0.3,0.1-0.5,0.3-0.7,0.5c-0.2,0.2-0.3,0.4-0.3,0.7c0,0.3,0,0.5,0.1,0.8c0.1,0.2,0.3,0.5,0.5,0.6
			c0.2,0.2,0.5,0.3,0.9,0.3C208.5,127.2,208.8,127.2,209.1,127.1z"/>
		<path class="st1" d="M204.8,130c0.4-0.3,0.8-0.6,1.3-0.7c0.5-0.1,1-0.1,1.6,0.1c0.6,0.2,1,0.5,1.3,0.8c0.3,0.4,0.6,0.8,0.7,1.3
			c0.1,0.5,0.1,1-0.1,1.5c-0.2,0.5-0.4,1-0.8,1.3c-0.4,0.3-0.8,0.6-1.3,0.7c-0.5,0.1-1,0.1-1.6-0.1c-0.6-0.2-1-0.5-1.3-0.9
			c-0.3-0.4-0.6-0.8-0.6-1.3c-0.1-0.5-0.1-1,0.1-1.5C204.2,130.8,204.4,130.4,204.8,130z M205.1,132.5c0.1,0.3,0.2,0.5,0.4,0.7
			c0.2,0.2,0.5,0.4,0.8,0.5c0.5,0.2,1,0.2,1.3,0c0.4-0.2,0.6-0.5,0.7-0.9c0.1-0.4,0.1-0.8-0.1-1.1c-0.2-0.4-0.5-0.6-1.1-0.8
			c-0.5-0.2-0.9-0.2-1.3,0c-0.4,0.2-0.6,0.4-0.7,0.8C205.1,132,205.1,132.2,205.1,132.5z"/>
		<path class="st1" d="M206.8,139.2c0,0.3,0,0.7-0.2,1l-1.4-0.6l0.2-0.3c0.2-0.4,0.2-0.8,0.2-1.1c-0.1-0.3-0.4-0.6-0.9-0.8l-2.6-1.2
			l0.6-1.3l5.1,2.4l-0.6,1.3l-0.8-0.4C206.7,138.6,206.8,138.9,206.8,139.2z"/>
		<path class="st1" d="M204,142.2l-2.4-1.4c-0.2-0.1-0.3-0.1-0.4-0.1c-0.1,0-0.2,0.1-0.4,0.3l-0.3,0.6l-1-0.6l0.5-0.8
			c0.6-1,1.4-1.3,2.4-0.6l2.3,1.4l0.3-0.6l1,0.6l-0.3,0.6l1.2,0.7l-0.7,1.2l-1.2-0.7l-0.7,1.1l-1-0.6L204,142.2z"/>
		<path class="st1" d="M201.1,146.5l0.6-0.8l-3.6-2.7l0.9-1.2l3.6,2.7l0.4-0.5l1,0.7l-0.4,0.5l0.2,0.2c0.6,0.4,0.9,0.9,0.9,1.4
			c0,0.5-0.2,1.1-0.7,1.7l-1-0.7c0.2-0.3,0.3-0.5,0.3-0.7c0-0.2-0.2-0.4-0.4-0.6l-0.2-0.1l-0.6,0.8L201.1,146.5z"/>
		<path class="st1" d="M196.5,145.4c0.5-0.2,1-0.2,1.5,0c0.5,0.1,1,0.4,1.4,0.8c0.4,0.4,0.7,0.8,0.9,1.3c0.1,0.5,0.2,1,0,1.5
			c-0.1,0.5-0.4,0.9-0.8,1.3c-0.4,0.4-0.8,0.7-1.3,0.8c-0.5,0.2-1,0.2-1.5,0.1c-0.5-0.1-1-0.4-1.4-0.8c-0.4-0.4-0.7-0.8-0.9-1.3
			c-0.1-0.5-0.2-1,0-1.5c0.1-0.5,0.4-0.9,0.8-1.3C195.6,145.8,196,145.6,196.5,145.4z M195.8,147.8c-0.1,0.3-0.1,0.5,0,0.8
			c0.1,0.3,0.3,0.5,0.5,0.8c0.4,0.4,0.8,0.5,1.2,0.5c0.4,0,0.7-0.2,1-0.5c0.3-0.3,0.4-0.6,0.4-1.1c0-0.4-0.2-0.8-0.6-1.2
			c-0.4-0.4-0.8-0.6-1.2-0.6c-0.4,0-0.7,0.1-1,0.4C195.9,147.3,195.8,147.5,195.8,147.8z"/>
		<path class="st1" d="M196.4,155.7l-4.9-5.8l1.1-0.9l4.9,5.8L196.4,155.7z"/>
		<path class="st1" d="M192.6,156.1l-3.4-4.6l1.2-0.9l3.4,4.6L192.6,156.1z M194.3,156.1c0.2,0,0.4,0.1,0.6,0.3
			c0.1,0.2,0.2,0.4,0.2,0.6c0,0.2-0.2,0.4-0.4,0.6c-0.2,0.2-0.4,0.2-0.7,0.2c-0.2,0-0.4-0.1-0.6-0.3c-0.1-0.2-0.2-0.4-0.2-0.6
			c0-0.2,0.2-0.4,0.4-0.6C193.8,156.1,194,156.1,194.3,156.1z"/>
		<path class="st1" d="M187.5,153.1c0.5,0,1,0.1,1.4,0.4c0.4,0.3,0.8,0.6,1.1,1.1c0.3,0.5,0.4,1,0.4,1.5c0,0.5-0.1,1-0.4,1.4
			c-0.3,0.4-0.6,0.8-1.1,1.1c-0.5,0.3-1,0.4-1.5,0.4c-0.5,0-1-0.1-1.4-0.4c-0.4-0.3-0.8-0.6-1.1-1.1s-0.4-1-0.4-1.5
			c0-0.5,0.1-1,0.4-1.4c0.3-0.4,0.6-0.8,1.1-1.1C186.5,153.2,187,153.1,187.5,153.1z M186.1,155.1c-0.1,0.2-0.2,0.5-0.2,0.8
			c0,0.3,0.1,0.6,0.3,0.9c0.3,0.5,0.6,0.8,1,0.9c0.4,0.1,0.8,0.1,1.1-0.1c0.4-0.2,0.6-0.5,0.7-0.9c0.1-0.4,0-0.8-0.3-1.3
			c-0.3-0.5-0.6-0.8-1-0.9c-0.4-0.1-0.7-0.1-1.1,0.1C186.5,154.7,186.3,154.9,186.1,155.1z"/>
		<path class="st1" d="M177.6,162.6c-0.5-0.3-0.9-0.8-1.1-1.5l-1-3.2l1.4-0.4l0.9,3c0.1,0.4,0.3,0.7,0.6,0.9c0.3,0.2,0.6,0.2,1,0.1
			c0.4-0.1,0.6-0.3,0.8-0.6c0.1-0.3,0.2-0.7,0-1.1l-0.9-3l1.4-0.4l1.7,5.4l-1.4,0.4l-0.2-0.7c-0.1,0.3-0.3,0.6-0.5,0.8
			c-0.2,0.2-0.5,0.4-0.9,0.5C178.7,163,178.1,162.9,177.6,162.6z"/>
		<path class="st1" d="M169.5,161.3l4.1-0.6c-0.1-0.4-0.3-0.7-0.6-0.9c-0.3-0.2-0.6-0.3-1-0.2c-0.5,0.1-0.9,0.4-1,0.8l-1.5,0.2
			c0.1-0.6,0.3-1.1,0.7-1.5c0.4-0.4,0.9-0.7,1.6-0.8c0.5-0.1,1,0,1.5,0.1c0.5,0.2,0.9,0.5,1.2,0.9c0.3,0.4,0.5,0.9,0.6,1.5
			c0.1,0.6,0,1.1-0.1,1.6c-0.2,0.5-0.5,0.9-0.8,1.2c-0.4,0.3-0.9,0.5-1.4,0.6c-0.5,0.1-1,0-1.5-0.1c-0.5-0.2-0.8-0.4-1.1-0.8
			c-0.3-0.4-0.5-0.9-0.6-1.4C169.6,161.7,169.5,161.5,169.5,161.3z M171.1,162.1c0.1,0.4,0.2,0.6,0.5,0.8s0.6,0.2,1,0.2
			c0.4-0.1,0.6-0.2,0.8-0.5c0.2-0.2,0.3-0.6,0.3-1L171.1,162.1z"/>
		<path class="st1" d="M160.3,164.5l1.8-5.6l1.5,0.1l0.9,4l1.2-3.9l1.6,0.1l1.5,5.7l-1.5,0l-0.9-4.4l-1.2,4.3l-1.5-0.1l-0.9-4.4
			l-1.1,4.3L160.3,164.5z"/>
		<path class="st1" d="M154.1,162.9c-0.4,0.1-0.7,0.1-1.1-0.1c-0.5-0.1-0.9-0.4-1.2-0.7c-0.3-0.3-0.5-0.8-0.6-1.2
			c-0.1-0.5-0.1-1,0.1-1.6c0.2-0.6,0.4-1,0.8-1.4c0.3-0.4,0.7-0.6,1.2-0.7c0.4-0.1,0.9-0.1,1.4,0c0.4,0.1,0.7,0.3,1,0.5
			c0.3,0.2,0.4,0.5,0.6,0.8l0.2-0.8l1.4,0.4l-2.1,7.3l-1.4-0.4l0.8-2.6C154.8,162.6,154.5,162.8,154.1,162.9z M152.7,160.6
			c0.1,0.3,0.2,0.5,0.4,0.7c0.2,0.2,0.4,0.3,0.7,0.4c0.3,0.1,0.5,0.1,0.8,0c0.3-0.1,0.5-0.2,0.7-0.4c0.2-0.2,0.4-0.5,0.4-0.8
			c0.1-0.3,0.1-0.6,0-0.9c-0.1-0.3-0.2-0.5-0.4-0.7c-0.2-0.2-0.4-0.3-0.6-0.4c-0.3-0.1-0.5-0.1-0.8,0c-0.3,0.1-0.5,0.2-0.7,0.4
			c-0.2,0.2-0.4,0.5-0.5,0.8C152.6,160,152.6,160.3,152.7,160.6z"/>
		<path class="st1" d="M147.1,160.3c-0.3,0-0.7,0-1-0.2l0.6-1.4l0.3,0.2c0.4,0.2,0.8,0.2,1.1,0.1c0.3-0.1,0.6-0.4,0.8-0.9l1.2-2.6
			l1.3,0.6l-2.4,5.2l-1.3-0.6l0.4-0.8C147.8,160.1,147.5,160.2,147.1,160.3z"/>
		<path class="st1" d="M145.5,158.3c-0.4,0.3-0.9,0.4-1.3,0.4c-0.5,0-0.9-0.1-1.3-0.4c-0.4-0.2-0.6-0.5-0.8-0.8
			c-0.2-0.3-0.3-0.6-0.3-0.9l-0.4,0.7l-1.2-0.8l3-4.9l1.2,0.8l-0.4,0.7c0.3-0.1,0.6-0.2,1-0.2c0.4,0,0.7,0.1,1.1,0.4
			c0.4,0.2,0.7,0.6,0.9,1c0.2,0.4,0.3,0.9,0.3,1.4c0,0.5-0.2,1-0.5,1.5C146.3,157.7,145.9,158.1,145.5,158.3z M142.5,155.7
			c0,0.3,0,0.5,0.2,0.8c0.1,0.2,0.3,0.4,0.5,0.6c0.2,0.1,0.5,0.2,0.7,0.2c0.3,0,0.5-0.1,0.8-0.2c0.2-0.1,0.5-0.4,0.6-0.6
			c0.2-0.3,0.3-0.6,0.3-0.9c0-0.3,0-0.6-0.2-0.8c-0.1-0.2-0.3-0.4-0.5-0.6c-0.2-0.1-0.5-0.2-0.7-0.2c-0.3,0-0.5,0.1-0.8,0.2
			c-0.2,0.1-0.5,0.4-0.6,0.7C142.6,155.2,142.5,155.5,142.5,155.7z"/>
		<path class="st1" d="M135.1,151.8c0-0.6,0.2-1.2,0.7-1.8l2.2-2.5l1.1,0.9l-2,2.4c-0.3,0.3-0.4,0.7-0.4,1c0,0.3,0.2,0.6,0.5,0.9
			c0.3,0.3,0.6,0.4,0.9,0.3c0.3,0,0.6-0.2,0.9-0.6l2-2.4l1.1,0.9l-3.7,4.3l-1.1-0.9l0.5-0.5c-0.3,0.1-0.6,0-0.9,0
			c-0.3-0.1-0.6-0.2-0.9-0.5C135.4,152.9,135.1,152.4,135.1,151.8z"/>
		<path class="st1" d="M133.8,149.5c-0.5,0.1-1,0.1-1.4-0.1c-0.4-0.2-0.8-0.4-1.1-0.8c-0.2-0.3-0.4-0.6-0.5-1c-0.1-0.4-0.1-0.7,0-1
			l-2.1,1.7l-0.9-1.1l5.8-4.9l0.9,1.1l-0.6,0.5c0.3,0,0.7,0,1,0.1c0.3,0.1,0.6,0.4,0.9,0.7c0.3,0.4,0.5,0.8,0.6,1.2
			c0.1,0.5,0,0.9-0.2,1.4c-0.2,0.5-0.5,0.9-1,1.3C134.8,149.2,134.3,149.4,133.8,149.5z M131.8,146.1c-0.1,0.3-0.1,0.5-0.1,0.8
			c0,0.3,0.2,0.5,0.3,0.7c0.2,0.2,0.4,0.4,0.6,0.4c0.2,0.1,0.5,0.1,0.8,0.1c0.3-0.1,0.6-0.2,0.8-0.4c0.3-0.2,0.4-0.5,0.6-0.7
			c0.1-0.3,0.1-0.5,0.1-0.8c0-0.3-0.1-0.5-0.3-0.7c-0.2-0.2-0.4-0.4-0.6-0.4c-0.2-0.1-0.5-0.1-0.8-0.1c-0.3,0.1-0.6,0.2-0.8,0.4
			C132.1,145.6,131.9,145.8,131.8,146.1z"/>
		<path class="st1" d="M125.8,140c-0.3-0.2-0.5-0.5-0.7-0.9c-0.2-0.4-0.3-0.9-0.3-1.3c0-0.5,0.2-0.9,0.5-1.3c0.3-0.4,0.7-0.7,1.2-1
			s1-0.4,1.5-0.4c0.5,0,1,0.1,1.4,0.4c0.4,0.2,0.7,0.6,0.9,1c0.2,0.4,0.3,0.7,0.3,1.1c0,0.4-0.1,0.7-0.2,1l3.1-1.6l0.6,1.3l-7.5,3.8
			l-0.6-1.3l0.7-0.4C126.4,140.4,126.1,140.2,125.8,140z M126.5,137.4c-0.2,0.2-0.2,0.5-0.3,0.8c0,0.3,0,0.5,0.2,0.8
			c0.1,0.2,0.3,0.4,0.5,0.6s0.5,0.2,0.8,0.2c0.3,0,0.6-0.1,0.9-0.2c0.3-0.2,0.5-0.4,0.7-0.6c0.2-0.2,0.3-0.5,0.3-0.8
			c0-0.3,0-0.5-0.2-0.7c-0.1-0.2-0.3-0.4-0.5-0.6c-0.2-0.1-0.5-0.2-0.8-0.2c-0.3,0-0.6,0.1-0.9,0.2
			C126.9,137,126.7,137.2,126.5,137.4z"/>
		<path class="st1" d="M123,133.2c-0.3-0.2-0.5-0.5-0.6-0.9l1.4-0.5l0.1,0.4c0.1,0.4,0.4,0.7,0.6,0.9c0.3,0.1,0.7,0.1,1.2,0l2.7-0.9
			l0.5,1.4l-5.4,1.9l-0.5-1.4l0.8-0.3C123.5,133.6,123.2,133.4,123,133.2z"/>
		<path class="st1" d="M127.1,128.7c-0.1,0.5-0.4,0.9-0.8,1.2c-0.4,0.3-0.9,0.6-1.4,0.7c-0.6,0.1-1.1,0.1-1.6-0.1
			c-0.5-0.2-0.9-0.4-1.2-0.8c-0.3-0.4-0.5-0.8-0.7-1.4c-0.1-0.5-0.1-1,0.1-1.5c0.1-0.5,0.4-0.9,0.8-1.2c0.4-0.3,0.9-0.6,1.4-0.7
			c0.6-0.1,1.1-0.1,1.6,0.1c0.5,0.2,0.9,0.4,1.2,0.8c0.3,0.4,0.6,0.9,0.7,1.4C127.3,127.8,127.2,128.3,127.1,128.7z M125.6,126.8
			c-0.2-0.2-0.4-0.3-0.7-0.4c-0.3-0.1-0.6-0.1-0.9,0c-0.5,0.1-0.9,0.3-1.1,0.7s-0.3,0.7-0.2,1.1c0.1,0.4,0.3,0.7,0.6,0.9
			c0.3,0.2,0.8,0.3,1.3,0.2c0.5-0.1,0.9-0.3,1.1-0.7c0.2-0.3,0.3-0.7,0.2-1.1C125.9,127.2,125.8,127,125.6,126.8z"/>
		<path class="st1" d="M122,123.8c-0.5-0.2-0.8-0.5-1.1-0.9c-0.3-0.4-0.4-0.8-0.4-1.3c0-0.4,0-0.7,0.2-1.1c0.1-0.3,0.3-0.6,0.6-0.8
			l-2.7,0.1l-0.1-1.5l7.6-0.3l0.1,1.5l-0.8,0c0.3,0.2,0.5,0.4,0.7,0.7c0.2,0.3,0.3,0.7,0.3,1.1c0,0.5-0.1,0.9-0.3,1.3
			c-0.2,0.4-0.6,0.7-1,1c-0.4,0.2-0.9,0.4-1.5,0.4C122.9,124.1,122.4,124,122,123.8z M122.5,119.8c-0.2,0.1-0.4,0.3-0.5,0.6
			c-0.1,0.2-0.2,0.5-0.2,0.8c0,0.3,0.1,0.5,0.2,0.7c0.1,0.2,0.3,0.4,0.6,0.5c0.3,0.1,0.6,0.2,0.9,0.2c0.3,0,0.6-0.1,0.9-0.3
			c0.2-0.2,0.4-0.3,0.6-0.6c0.1-0.2,0.2-0.5,0.2-0.7c0-0.3-0.1-0.5-0.2-0.7c-0.1-0.2-0.3-0.4-0.6-0.5c-0.3-0.1-0.6-0.2-0.9-0.2
			C123,119.6,122.7,119.7,122.5,119.8z"/>
		<path class="st1" d="M121.2,110.9l5.6,0.7l-0.2,1.4l-0.7-0.1c0.2,0.2,0.4,0.5,0.5,0.8c0.1,0.3,0.1,0.6,0.1,1
			c-0.1,0.4-0.2,0.8-0.4,1.1c-0.2,0.3-0.5,0.5-0.9,0.7c-0.4,0.1-0.8,0.2-1.3,0.1l-3.3-0.4l0.2-1.4l3.1,0.4c0.4,0.1,0.8,0,1.1-0.2
			c0.3-0.2,0.4-0.5,0.5-0.9c0-0.4,0-0.7-0.2-1c-0.2-0.3-0.5-0.4-1-0.5l-3.1-0.4L121.2,110.9z"/>
		<path class="st1" d="M122.9,109.2c-0.4-0.4-0.6-0.8-0.7-1.2c-0.1-0.5-0.1-1,0.1-1.5c0.2-0.7,0.5-1.2,1-1.5c0.5-0.3,1-0.5,1.7-0.5
			l-0.4,1.5c-0.3,0-0.5,0.1-0.7,0.2c-0.2,0.1-0.3,0.4-0.4,0.6c-0.1,0.4-0.1,0.7,0.2,1.1c0.2,0.3,0.6,0.5,1.1,0.7
			c0.5,0.1,1,0.1,1.3,0c0.4-0.1,0.6-0.4,0.7-0.8c0.2-0.6,0-1-0.4-1.3l0.4-1.5c0.5,0.3,0.9,0.8,1.2,1.3c0.2,0.5,0.2,1.2,0,1.8
			c-0.2,0.5-0.4,1-0.7,1.3c-0.3,0.3-0.8,0.6-1.3,0.7c-0.5,0.1-1,0.1-1.6-0.1C123.7,109.8,123.2,109.6,122.9,109.2z"/>
		<path class="st1" d="M125.3,101.4l2.5,1.1c0.2,0.1,0.3,0.1,0.4,0c0.1-0.1,0.2-0.2,0.3-0.4l0.3-0.6l1.1,0.5l-0.3,0.8
			c-0.5,1.1-1.2,1.4-2.3,1l-2.5-1.1l-0.3,0.6l-1.1-0.5l0.3-0.6l-1.3-0.5l0.6-1.3l1.3,0.5l0.5-1.2l1.1,0.5L125.3,101.4z"/>
	</g>
</g>
</svg>
